# 3ds Max Wavefront OBJ Exporter v0.97b - (c)2007 guruware
# Datei erstellt: 07.04.2016 15:35:24

mtllib Wasserhahn.mtl

#
# object Zylinder004
#

v  -7.998158 -1.587953 -23.282749
v  -5.437396 -1.173415 -21.026457
v  -5.375425 -1.637432 -23.166691
v  -5.371430 0.336515 -24.430126
v  -5.381701 1.663553 -23.587173
v  -5.381705 1.737931 -21.680023
v  -5.432233 0.379347 -20.554375
v  -1.468457 5.364000 -20.860313
v  -3.224639 5.363999 -23.074682
v  -2.985782 5.363999 -21.460531
v  -0.917863 9.217565 -22.235374
v  0.206727 9.216041 -22.234640
v  -0.917863 9.374437 -22.038660
v  0.206727 9.373384 -22.037338
v  -0.917863 9.601127 -21.929493
v  0.206727 9.600750 -21.927843
v  -0.917863 9.852732 -21.929493
v  0.206727 9.853109 -21.927843
v  -0.917863 10.079420 -22.038660
v  0.206727 10.080476 -22.037338
v  -0.917863 10.236294 -22.235374
v  0.206727 10.237819 -22.234640
v  1.251420 9.124997 -22.190796
v  1.251420 9.310380 -21.958334
v  1.251420 9.578264 -21.829327
v  1.251420 9.875594 -21.829327
v  1.251420 10.143479 -21.958334
v  1.251420 10.328861 -22.190796
v  1.322050 9.163177 -22.209183
v  1.322050 9.336802 -21.991465
v  1.322050 9.587695 -21.870642
v  1.322050 9.866164 -21.870642
v  1.322050 10.117058 -21.991465
v  1.322050 10.290682 -22.209181
v  -1.042349 9.098211 -22.177896
v  -1.042349 9.291843 -21.935089
v  -1.042349 9.571648 -21.800343
v  -1.042349 9.882210 -21.800343
v  -1.042349 10.162016 -21.935089
v  -1.042349 10.355648 -22.177896
v  -1.255668 8.962615 -22.112597
v  -1.255669 9.198007 -21.817423
v  -1.255669 9.538160 -21.653614
v  -1.255669 9.915700 -21.653614
v  -1.255669 10.255853 -21.817423
v  -1.255669 10.491246 -22.112597
v  -1.610540 8.859469 -22.062923
v  -1.610540 9.126629 -21.727915
v  -1.610540 9.512685 -21.542000
v  -1.610541 9.941175 -21.542002
v  -1.610541 10.327231 -21.727915
v  -1.610540 10.594392 -22.062923
v  -1.721564 8.843003 -22.054993
v  -1.721564 9.115233 -21.713627
v  -1.721564 9.508618 -21.524183
v  -1.721564 9.945243 -21.524183
v  -1.721564 10.338628 -21.713627
v  -1.721564 10.610859 -22.054993
v  -3.649855 9.216041 -22.234640
v  -2.525265 9.217566 -22.235374
v  -3.649855 9.373384 -22.037338
v  -2.525265 9.374438 -22.038660
v  -3.649855 9.600751 -21.927843
v  -2.525265 9.601128 -21.929493
v  -3.649854 9.853108 -21.927843
v  -2.525265 9.852732 -21.929493
v  -3.649854 10.080477 -22.037338
v  -2.525265 10.079421 -22.038660
v  -3.649854 10.237820 -22.234638
v  -2.525265 10.236295 -22.235374
v  -4.694548 9.124999 -22.190796
v  -4.694548 9.310380 -21.958334
v  -4.694548 9.578265 -21.829327
v  -4.694548 9.875595 -21.829327
v  -4.694548 10.143480 -21.958334
v  -4.694548 10.328862 -22.190796
v  -4.765178 9.163178 -22.209183
v  -4.765178 9.336802 -21.991465
v  -4.765178 9.587695 -21.870642
v  -4.765178 9.866166 -21.870642
v  -4.765178 10.117058 -21.991465
v  -4.765178 10.290683 -22.209181
v  -2.400780 9.098212 -22.177896
v  -2.400780 9.291844 -21.935089
v  -2.400780 9.571649 -21.800343
v  -2.400779 9.882211 -21.800343
v  -2.400779 10.162017 -21.935089
v  -2.400779 10.355649 -22.177896
v  -2.187460 8.962615 -22.112597
v  -2.187460 9.198007 -21.817423
v  -2.187460 9.538160 -21.653614
v  -2.187459 9.915700 -21.653614
v  -2.187459 10.255853 -21.817423
v  -2.187459 10.491246 -22.112597
v  -1.832588 8.859469 -22.062923
v  -1.832588 9.126629 -21.727915
v  -1.832588 9.512685 -21.542000
v  -1.832588 9.941175 -21.542002
v  -1.832588 10.327231 -21.727915
v  -1.832587 10.594392 -22.062923
v  -1.712152 -1.801938 -21.622408
v  -1.712152 -1.246980 -20.926512
v  -1.712153 -0.000001 -20.540319
v  -1.267111 0.445041 -20.540319
v  1.287847 0.338700 -21.006227
v  1.287847 -0.338702 -21.006227
v  -0.465173 1.246979 -20.926512
v  1.287847 0.949019 -21.300142
v  0.089785 1.801936 -21.622408
v  1.287847 1.371372 -21.829756
v  -1.338286 2.298148 -20.852160
v  -0.664603 2.298147 -21.176590
v  -0.198400 2.298147 -21.761190
v  -1.712152 2.298148 -20.852160
v  -4.819448 -1.363514 -21.865322
v  -4.881345 -1.145318 -21.410866
v  -4.712152 -0.351810 -20.948799
v  -4.842385 0.351808 -20.948799
v  -2.157194 0.445041 -20.540319
v  -4.975114 0.985746 -21.254087
v  -2.959132 1.246979 -20.926512
v  -5.097471 1.424445 -21.804197
v  -3.514090 1.801937 -21.622408
v  -2.759702 2.298147 -21.176590
v  -2.086019 2.298148 -20.852160
v  -3.225905 2.298147 -21.761190
v  -5.396873 -1.431904 -23.116035
v  -5.434361 -1.049320 -21.287384
v  -5.425988 0.350987 -20.879585
v  -5.384327 1.471146 -21.807688
v  -8.027576 -1.185743 -21.004585
v  -8.027575 0.423034 -20.637392
v  -8.027576 1.713173 -21.666245
v  -8.027575 -1.991804 -22.474464
v  -8.027576 -1.244105 -20.930117
v  -8.027576 -0.444017 -20.544815
v  -8.027576 0.444015 -20.544813
v  -8.027577 1.244104 -20.930117
v  -8.027577 1.797783 -21.624409
v  -8.633656 -1.797785 -21.624409
v  -8.633657 -1.244106 -20.930117
v  -8.633657 -0.444017 -20.544815
v  -8.633657 0.444015 -20.544813
v  -8.633657 1.244104 -20.930117
v  -8.633657 1.797783 -21.624409
v  -8.633656 -1.390653 -21.820473
v  -8.603050 -0.887315 -21.302662
v  -8.603050 -0.268417 -21.004616
v  -8.633657 0.343462 -20.985367
v  -8.633657 0.962359 -21.283413
v  -8.633657 1.390651 -21.820473
v  -9.764652 -1.390653 -21.820473
v  -9.734047 -0.887315 -21.302662
v  -9.734047 -0.268417 -21.004616
v  -9.764654 0.343461 -20.985367
v  -9.764654 0.962360 -21.283413
v  -9.764654 1.390651 -21.820473
v  -9.958799 -1.302445 -21.862951
v  -9.958801 -0.901320 -21.359957
v  -9.958801 -0.321678 -21.080816
v  -9.958801 0.321676 -21.080816
v  -9.958801 0.901318 -21.359957
v  -9.958801 1.302442 -21.862951
v  1.287847 -1.371375 -21.829756
v  1.287847 -0.949022 -21.300142
v  2.370749 -0.880133 -21.478764
v  2.339685 -1.235198 -21.925701
v  2.415639 -0.367050 -21.230732
v  2.465461 0.202429 -21.230732
v  2.510350 0.715512 -21.478764
v  2.541414 1.070576 -21.925701
v  2.998900 -0.947774 -21.692968
v  2.925319 -1.222388 -22.049471
v  3.105231 -0.550944 -21.495123
v  3.223248 -0.110496 -21.495123
v  3.329578 0.286334 -21.692968
v  3.403161 0.560948 -22.049471
v  3.340294 -1.466164 -22.034529
v  3.954847 -2.201213 -22.050518
v  3.491649 -1.250008 -21.703636
v  4.149815 -2.064695 -21.752060
v  3.710361 -0.937654 -21.520004
v  4.431554 -1.867420 -21.586428
v  3.953114 -0.590967 -21.520004
v  4.744258 -1.648461 -21.586428
v  4.171828 -0.278612 -21.703636
v  5.025996 -1.451188 -21.752060
v  4.323182 -0.062455 -22.034529
v  5.220964 -1.314670 -22.050518
v  4.185786 -2.848289 -22.023350
v  4.422894 -2.827545 -21.724892
v  4.765524 -2.797568 -21.559259
v  5.145813 -2.764299 -21.559259
v  5.488444 -2.734323 -21.724890
v  5.725551 -2.713579 -22.023350
v  4.414810 -4.514310 -22.023350
v  4.651917 -4.493565 -21.724892
v  4.994546 -4.463589 -21.559259
v  5.374837 -4.430319 -21.559259
v  5.717466 -4.400344 -21.724890
v  5.954574 -4.379599 -22.023350
v  -1.712152 2.519350 -20.852160
v  -1.338286 2.519350 -20.852160
v  -0.664603 2.565633 -21.176590
v  -0.198400 2.588697 -21.761190
v  -2.086019 2.519350 -20.852160
v  -2.759702 2.543476 -21.176590
v  -3.225905 2.566143 -21.761190
v  -1.712152 2.933823 -20.741226
v  -1.312966 2.933823 -20.741226
v  -0.593657 2.933823 -21.087627
v  -0.095881 2.933823 -21.711819
v  -2.111339 2.933823 -20.741226
v  -2.830647 2.933823 -21.087627
v  -3.328425 2.933823 -21.711819
v  -1.712152 3.727892 -20.521252
v  -1.262759 3.727892 -20.521252
v  -0.452979 3.727893 -20.911221
v  0.107405 3.727892 -21.613922
v  -2.161547 3.727892 -20.521252
v  -2.971326 3.727893 -20.911221
v  -3.531711 3.727893 -21.613922
v  -1.712152 3.727893 -20.387907
v  -1.232324 3.727893 -20.387907
v  -0.367702 3.727893 -20.804287
v  0.230635 3.727893 -21.554577
v  -2.191981 3.727893 -20.387907
v  -3.056603 3.727893 -20.804287
v  -3.654940 3.727893 -21.554577
v  -1.712152 3.873756 -20.387907
v  -1.232324 3.873756 -20.387907
v  -0.367702 3.873756 -20.804287
v  0.230635 3.873756 -21.554577
v  -2.191981 3.873756 -20.387907
v  -3.056603 3.873756 -20.804287
v  -3.654940 3.873756 -21.554577
v  -1.712152 4.000738 -20.447205
v  -1.245857 4.000738 -20.447205
v  -0.405623 4.000738 -20.851839
v  0.175837 4.000739 -21.580967
v  -2.178447 4.000738 -20.447205
v  -3.018681 4.000738 -20.851839
v  -3.600142 4.000738 -21.580967
v  -1.712152 4.127594 -20.576788
v  -1.275434 4.127594 -20.576788
v  -0.488495 4.127594 -20.955757
v  0.056083 4.127594 -21.638638
v  -2.148870 4.127594 -20.576788
v  -2.935809 4.127594 -20.955757
v  -3.480388 4.127594 -21.638638
v  -1.474382 4.242198 -20.848721
v  -0.169971 4.248737 -21.862585
v  -2.983646 4.228247 -21.465067
v  -1.712152 6.399289 -21.157549
v  -1.407989 6.399289 -21.157549
v  -0.859906 6.399289 -21.421492
v  -0.480621 6.399289 -21.897100
v  -2.016315 6.399287 -21.157549
v  -2.564399 6.399287 -21.421492
v  -2.943684 6.399287 -21.897100
v  -1.712152 6.399289 -21.230663
v  -1.424677 6.399289 -21.230663
v  -0.906665 6.399290 -21.480125
v  -0.548190 6.399289 -21.929640
v  -1.999628 6.399288 -21.230663
v  -2.517640 6.399288 -21.480125
v  -2.876116 6.399288 -21.929640
v  -1.712152 6.839514 -21.230663
v  -1.424677 6.839514 -21.230663
v  -0.906665 6.839514 -21.480125
v  -0.548190 6.839514 -21.929640
v  -1.999628 6.839513 -21.230663
v  -2.517640 6.839513 -21.480125
v  -2.876116 6.839513 -21.929640
v  -1.712153 6.839512 -21.854307
v  -1.567019 6.839512 -21.854307
v  -1.305500 6.839512 -21.980249
v  -1.124523 6.839512 -22.207188
v  -1.857285 6.839512 -21.854307
v  -2.118805 6.839512 -21.980249
v  -2.299783 6.839512 -22.207188
v  -1.712153 9.060840 -21.854307
v  -1.567020 9.060840 -21.854307
v  -1.305500 9.060840 -21.980249
v  -1.124523 9.060840 -22.207188
v  -1.857285 9.060840 -21.854307
v  -2.118805 9.060840 -21.980249
v  -2.299783 9.060840 -22.207188
v  -4.232585 1.498858 -21.676664
v  -3.819825 0.948848 -21.043211
v  -3.419391 0.166175 -20.696003
v  -3.294729 -0.216017 -20.713730
v  -3.209026 -1.148343 -21.050198
v  -3.209026 -1.659404 -21.691048
v  0.634465 1.518054 -21.691174
v  0.285614 0.975423 -21.054556
v  -0.064002 0.193436 -20.693239
v  -0.130374 -0.199155 -20.707394
v  -0.209566 -1.132070 -21.048309
v  -0.210352 -1.645817 -21.690014
v  -0.917863 9.162994 -22.474464
v  0.206727 9.161301 -22.474464
v  1.322050 9.102628 -22.474464
v  1.322050 10.351230 -22.474464
v  -1.255668 8.880020 -22.474464
v  -1.721564 10.706599 -22.474464
v  -3.649855 9.161302 -22.474464
v  -3.649854 10.292558 -22.474464
v  -2.525265 10.290865 -22.474464
v  -2.400779 10.423339 -22.474464
v  -2.187460 8.880020 -22.474464
v  -1.832588 8.765538 -22.474464
v  -1.901171 10.688323 -22.474464
v  0.284262 1.996413 -22.474464
v  1.287848 1.518522 -22.474464
v  -0.035600 2.298147 -22.474464
v  -3.708566 1.996414 -22.474464
v  -3.388706 2.298148 -22.474464
v  -8.027575 -1.897869 -22.474464
v  -9.764652 -1.539922 -22.474464
v  -9.958798 -1.442020 -22.474464
v  3.428267 0.654645 -22.474464
v  3.287027 -1.542235 -22.474464
v  3.886268 -2.249233 -22.474464
v  4.376448 0.013616 -22.474464
v  6.038048 -4.372298 -22.474464
v  -3.728123 3.727893 -22.474464
v  -3.864898 3.873756 -22.474464
v  -3.804076 4.000738 -22.474464
v  -3.223172 4.241249 -23.073080
v  -3.075463 6.399287 -22.474464
v  -2.360787 6.839512 -22.474464
v  -9.958801 1.442016 -22.474464
v  -0.035600 2.567452 -22.474464
v  0.078188 2.933823 -22.474464
v  0.303819 3.727893 -22.474464
v  0.440594 3.873756 -22.474464
v  0.246855 4.127594 -22.474464
v  -0.423837 6.399289 -22.474464
v  -0.423837 6.839514 -22.474464
v  -1.063519 6.839512 -22.474464
v  -3.209026 -1.838213 -22.474464
v  -4.358024 1.706997 -22.474464
v  0.762449 1.714881 -22.474464
v  -0.189990 5.363999 -21.874247
v  -0.428848 5.363999 -23.488398
v  -1.946173 5.363999 -24.088615
v  -0.917863 9.217566 -22.713554
v  0.206727 9.216041 -22.714289
v  0.206727 9.373384 -22.911591
v  -0.917863 9.374438 -22.910267
v  0.206727 9.600751 -23.021086
v  -0.917863 9.601127 -23.019434
v  0.206727 9.853108 -23.021086
v  -0.917863 9.852732 -23.019434
v  0.206727 10.080476 -22.911591
v  -0.917863 10.079421 -22.910267
v  0.206727 10.237818 -22.714289
v  -0.917863 10.236294 -22.713554
v  0.206727 10.292557 -22.474464
v  -0.917864 10.290864 -22.474464
v  1.251420 9.124998 -22.758133
v  1.251420 9.310380 -22.990595
v  1.251420 9.578264 -23.119602
v  1.251420 9.875594 -23.119602
v  1.251420 10.143479 -22.990595
v  1.251420 10.328861 -22.758133
v  1.251420 10.393607 -22.474464
v  1.322050 9.163177 -22.739746
v  1.322050 9.336801 -22.957462
v  1.322050 9.587694 -23.078287
v  1.322050 9.866164 -23.078287
v  1.322050 10.117058 -22.957464
v  1.322050 10.290682 -22.739746
v  -1.042349 9.098211 -22.771032
v  -1.042349 9.291842 -23.013838
v  -1.042349 9.571649 -23.148586
v  -1.042349 9.882210 -23.148586
v  -1.042349 10.162016 -23.013840
v  -1.042348 10.355649 -22.771032
v  -1.255668 8.962615 -22.836332
v  -1.255669 9.198008 -23.131506
v  -1.255669 9.538160 -23.295315
v  -1.255669 9.915701 -23.295315
v  -1.255669 10.255853 -23.131506
v  -1.255668 10.491245 -22.836332
v  -1.610540 8.859469 -22.886005
v  -1.610540 8.765537 -22.474464
v  -1.610541 9.126629 -23.221012
v  -1.610541 9.512685 -23.406927
v  -1.610541 9.941175 -23.406927
v  -1.610540 10.327232 -23.221012
v  -1.610540 10.594392 -22.886003
v  -1.721564 8.843004 -22.893934
v  -1.721564 8.747262 -22.474464
v  -1.721564 9.115233 -23.235302
v  -1.721564 9.508619 -23.424746
v  -1.721564 9.945243 -23.424746
v  -1.721564 10.338628 -23.235302
v  -1.721564 10.610859 -22.893934
v  -2.525265 9.217566 -22.713554
v  -2.525265 9.374439 -22.910267
v  -3.649855 9.373384 -22.911591
v  -3.649855 9.216042 -22.714289
v  -2.525265 9.601128 -23.019434
v  -3.649855 9.600752 -23.021086
v  -2.525265 9.852733 -23.019434
v  -3.649854 9.853109 -23.021086
v  -2.525265 10.079422 -22.910267
v  -3.649854 10.080477 -22.911591
v  -2.525265 10.236295 -22.713554
v  -3.649854 10.237819 -22.714289
v  -4.694548 9.310380 -22.990595
v  -4.694548 9.124999 -22.758133
v  -4.694548 9.578265 -23.119602
v  -4.694548 9.875595 -23.119600
v  -4.694548 10.143480 -22.990595
v  -4.694548 10.328862 -22.758133
v  -4.694548 10.393608 -22.474464
v  -4.765178 9.336802 -22.957462
v  -4.765178 9.163178 -22.739746
v  -4.765178 9.587695 -23.078287
v  -4.765178 9.866165 -23.078287
v  -4.765178 10.117058 -22.957462
v  -4.765178 10.290683 -22.739746
v  -4.765179 10.351231 -22.474464
v  -2.525265 9.162995 -22.474464
v  -2.362940 9.060264 -22.474464
v  -2.400780 9.098212 -22.771032
v  -2.400780 9.291843 -23.013838
v  -2.400780 9.571650 -23.148586
v  -2.400779 9.882211 -23.148586
v  -2.400779 10.162017 -23.013840
v  -2.400779 10.355650 -22.771032
v  -2.187460 8.962615 -22.836332
v  -2.187460 9.198008 -23.131506
v  -2.187460 9.538160 -23.295315
v  -2.187459 9.915701 -23.295315
v  -2.187459 10.255853 -23.131506
v  -2.187459 10.491245 -22.836332
v  -1.832588 8.859469 -22.886005
v  -1.832588 9.126629 -23.221012
v  -1.832588 9.512685 -23.406927
v  -1.832588 9.941175 -23.406927
v  -1.832587 10.327232 -23.221012
v  -1.832587 10.594392 -22.886003
v  -1.712152 -1.801939 -23.326521
v  -0.210352 -1.645817 -23.258915
v  -0.209566 -1.132070 -23.900620
v  -1.712152 -1.246980 -24.022417
v  -0.130374 -0.199155 -24.241535
v  -1.712153 -0.000001 -24.408609
v  1.287847 -0.338703 -23.942701
v  1.287847 0.338700 -23.942701
v  -0.064002 0.193436 -24.255690
v  -1.267111 0.445041 -24.408609
v  0.285614 0.975423 -23.894373
v  -0.465173 1.246979 -24.022417
v  0.634465 1.518054 -23.257755
v  0.089785 1.801936 -23.326521
v  -0.664603 2.298147 -23.772339
v  -1.338286 2.298148 -24.096767
v  -0.198400 2.298147 -23.187738
v  -1.712152 2.298148 -24.096767
v  -4.712152 -1.424446 -23.144730
v  -4.885478 -1.582801 -22.499393
v  -3.209026 -1.659404 -23.257879
v  -4.712152 -0.985748 -23.694841
v  -3.209026 -1.148343 -23.898729
v  -4.712152 -0.351810 -24.000130
v  -3.294729 -0.216018 -24.235197
v  -2.157194 0.445041 -24.408609
v  -3.419391 0.166175 -24.252926
v  -2.959132 1.246979 -24.022417
v  -3.819825 0.948848 -23.905716
v  -3.514090 1.801937 -23.326521
v  -4.232585 1.498858 -23.272264
v  -2.086019 2.298148 -24.096767
v  -2.759702 2.298147 -23.772339
v  -3.225905 2.298147 -23.187738
v  -4.842385 0.351808 -24.000130
v  -5.375856 0.315672 -24.075159
v  -4.975114 0.985746 -23.694841
v  -5.097471 1.424445 -23.144730
v  -5.384325 1.409820 -23.380142
v  -8.027576 -1.185743 -23.944344
v  -8.027575 0.423034 -24.311535
v  -8.027576 1.713173 -23.282684
v  -8.027575 -1.797786 -23.324520
v  -8.027576 -1.244106 -24.018812
v  -8.027576 -0.444017 -24.404114
v  -8.027576 0.444015 -24.404114
v  -8.027577 1.244104 -24.018812
v  -8.027577 1.797783 -23.324520
v  -8.633656 -1.797786 -23.324520
v  -8.633656 -1.991804 -22.474464
v  -8.633657 -1.244106 -24.018812
v  -8.633657 -0.444017 -24.404114
v  -8.633657 0.444015 -24.404114
v  -8.633657 1.244104 -24.018812
v  -8.633657 1.797783 -23.324520
v  -8.633656 -1.390653 -23.128456
v  -8.633656 -1.539922 -22.474464
v  -8.603050 -0.887315 -23.646267
v  -8.603050 -0.268417 -23.944313
v  -8.633657 0.343462 -23.963562
v  -8.633657 0.962360 -23.665516
v  -8.633657 1.390651 -23.128456
v  -9.764652 -1.390653 -23.128456
v  -9.734047 -0.887315 -23.646267
v  -9.734047 -0.268417 -23.944313
v  -9.764654 0.343461 -23.963560
v  -9.764654 0.962360 -23.665516
v  -9.764654 1.390651 -23.128456
v  -9.958799 -1.302445 -23.085978
v  -9.958801 -0.901320 -23.588972
v  -9.958801 -0.321678 -23.868113
v  -9.958801 0.321676 -23.868113
v  -9.958801 0.901318 -23.588972
v  -9.958801 1.302442 -23.085978
v  1.287847 -1.371375 -23.119171
v  2.339685 -1.235197 -23.023228
v  2.370749 -0.880133 -23.470165
v  1.287847 -0.949022 -23.648787
v  2.415639 -0.367050 -23.718197
v  2.465461 0.202429 -23.718197
v  2.510350 0.715512 -23.470165
v  1.287847 0.949019 -23.648787
v  2.541414 1.070576 -23.023228
v  1.287847 1.371372 -23.119171
v  2.552330 1.195352 -22.474464
v  2.925319 -1.222388 -22.899456
v  2.998900 -0.947774 -23.255960
v  3.105231 -0.550944 -23.453806
v  3.223248 -0.110496 -23.453804
v  3.329578 0.286334 -23.255960
v  3.403161 0.560948 -22.899456
v  3.340294 -1.466164 -22.914400
v  3.954847 -2.201213 -22.898411
v  4.149815 -2.064695 -23.196869
v  3.491649 -1.250008 -23.245293
v  4.431554 -1.867419 -23.362501
v  3.710361 -0.937654 -23.428923
v  4.744258 -1.648460 -23.362501
v  3.953114 -0.590967 -23.428923
v  5.025996 -1.451188 -23.196869
v  4.171828 -0.278612 -23.245293
v  5.220964 -1.314670 -22.898411
v  4.323182 -0.062456 -22.914400
v  5.289545 -1.266650 -22.474464
v  4.185786 -2.848289 -22.925579
v  4.422894 -2.827545 -23.224037
v  4.765524 -2.797568 -23.389669
v  5.145813 -2.764299 -23.389669
v  5.488444 -2.734323 -23.224037
v  5.725551 -2.713579 -22.925579
v  5.809025 -2.706275 -22.474464
v  4.414810 -4.514310 -22.925579
v  4.651917 -4.493566 -23.224037
v  4.994546 -4.463590 -23.389669
v  5.374837 -4.430320 -23.389669
v  5.717466 -4.400344 -23.224037
v  5.954574 -4.379600 -22.925579
v  2.900212 -1.316084 -22.474464
v  -1.338286 2.519350 -24.096767
v  -1.712152 2.519350 -24.096767
v  -0.664603 2.565633 -23.772339
v  -0.198400 2.588697 -23.187738
v  -2.086019 2.519350 -24.096767
v  -2.759702 2.543476 -23.772339
v  -3.225905 2.566143 -23.187738
v  -3.388706 2.588914 -22.474464
v  -1.312966 2.933823 -24.207703
v  -1.712152 2.933823 -24.207703
v  -0.593657 2.933823 -23.861301
v  -0.095881 2.933823 -23.237108
v  -2.111339 2.933823 -24.207703
v  -2.830647 2.933823 -23.861301
v  -3.328425 2.933823 -23.237108
v  -3.502493 2.933823 -22.474464
v  -1.262758 3.727892 -24.427677
v  -1.712152 3.727892 -24.427677
v  -0.452979 3.727893 -24.037708
v  0.107405 3.727892 -23.335007
v  -2.161546 3.727892 -24.427677
v  -2.971326 3.727893 -24.037708
v  -3.531711 3.727893 -23.335007
v  -1.232323 3.727893 -24.561022
v  -1.712152 3.727893 -24.561022
v  -0.367702 3.727892 -24.144642
v  0.230635 3.727893 -23.394352
v  -2.191981 3.727893 -24.561022
v  -3.056603 3.727893 -24.144642
v  -3.654940 3.727893 -23.394352
v  -3.864898 3.727893 -22.474464
v  -1.232323 3.873756 -24.561022
v  -1.712152 3.873756 -24.561022
v  -0.367702 3.873756 -24.144642
v  0.230635 3.873756 -23.394352
v  -2.191981 3.873756 -24.561022
v  -3.056603 3.873756 -24.144642
v  -3.654940 3.873756 -23.394350
v  -1.245857 4.000738 -24.501724
v  -1.712152 4.000738 -24.501724
v  -0.405623 4.000738 -24.097090
v  0.175837 4.000738 -23.367962
v  -2.178447 4.000738 -24.501724
v  -3.018681 4.000738 -24.097090
v  -3.600142 4.000738 -23.367962
v  -1.275434 4.127594 -24.372141
v  -1.712152 4.127594 -24.372141
v  -0.488495 4.127594 -23.993172
v  0.056083 4.127594 -23.310291
v  -2.148870 4.127593 -24.372141
v  -2.935809 4.127594 -23.993172
v  -3.480388 4.127594 -23.310291
v  -3.671160 4.127594 -22.474464
v  -0.430819 4.229435 -23.478043
v  -1.942551 4.236303 -24.083666
v  -1.407989 6.399289 -23.791380
v  -1.712152 6.399289 -23.791380
v  -0.859906 6.399289 -23.527437
v  -0.480621 6.399290 -23.051828
v  -2.016315 6.399287 -23.791380
v  -2.564399 6.399288 -23.527437
v  -2.943684 6.399287 -23.051828
v  -1.424677 6.399289 -23.718266
v  -1.712152 6.399289 -23.718266
v  -0.906665 6.399289 -23.468803
v  -0.548190 6.399290 -23.019289
v  -1.999628 6.399288 -23.718266
v  -2.517640 6.399288 -23.468803
v  -2.876116 6.399288 -23.019289
v  -3.000468 6.399288 -22.474464
v  -1.424677 6.839514 -23.718266
v  -1.712152 6.839514 -23.718266
v  -0.906665 6.839514 -23.468803
v  -0.548190 6.839514 -23.019289
v  -1.999628 6.839513 -23.718266
v  -2.517640 6.839513 -23.468803
v  -2.876116 6.839513 -23.019289
v  -3.000469 6.839512 -22.474464
v  -1.567019 6.839512 -23.094622
v  -1.712153 6.839512 -23.094622
v  -1.305500 6.839512 -22.968679
v  -1.124523 6.839512 -22.741741
v  -1.857285 6.839512 -23.094622
v  -2.118805 6.839512 -22.968679
v  -2.299783 6.839512 -22.741741
v  -1.567020 9.060840 -23.094622
v  -1.712153 9.060840 -23.094622
v  -1.305500 9.060840 -22.968679
v  -1.124523 9.060840 -22.741741
v  -1.857285 9.060840 -23.094622
v  -2.118805 9.060840 -22.968679
v  -2.299783 9.060840 -22.741741
v  1.251420 9.060251 -22.474464
v  -1.042348 10.423338 -22.474464
v  -1.255668 10.573841 -22.474464
v  -1.541956 10.688323 -22.474464
v  -4.694548 9.060252 -22.474464
v  -4.765178 9.102630 -22.474464
v  -2.187459 10.573841 -22.474464
v  4.102314 -2.855592 -22.474464
v  4.331335 -4.521614 -22.474464
v  -0.210591 -1.825435 -22.474464
v  -1.712152 -1.996414 -22.474464
v  -5.075678 1.577429 -22.474464
v  -8.027577 1.991803 -22.474464
v  -8.633657 1.991803 -22.474464
v  -8.633657 1.539920 -22.474464
v  -9.764654 1.539920 -22.474464
v  2.328770 -1.359972 -22.474464
v  1.287847 -1.518525 -22.474464
v  0.440594 3.727893 -22.474464
v  0.379771 4.000739 -22.474464
v  -0.348842 6.399289 -22.474464
v  -2.380664 9.059982 -22.474522
v  -1.052945 9.059179 -22.474464
v  -1.052945 9.062979 -22.474464
v  -1.562595 5.379923 -21.160450
v  -0.474309 5.385632 -21.892200
v  -0.855832 5.370703 -23.523319
v  -2.015628 5.389137 -23.819557
v  -3.000416 5.451196 -23.040916
v  -2.954221 5.396140 -21.914885
# 686 vertices

vt 0.731511 0.466790 0.000000
vt 0.843751 0.212831 0.000000
vt 0.928662 0.194408 0.000000
vt 0.926644 0.202570 0.000000
vt 0.854101 0.217752 0.000000
vt 0.978774 0.272702 0.000000
vt 0.964693 0.271876 0.000000
vt 0.739579 0.156775 0.000000
vt 0.798345 0.200585 0.000000
vt 0.936306 0.897209 0.000000
vt 0.877160 0.895121 0.000000
vt 0.936703 0.909539 0.000000
vt 0.875890 0.907617 0.000000
vt 0.936830 0.922003 0.000000
vt 0.875316 0.924697 0.000000
vt 0.936686 0.934502 0.000000
vt 0.875279 0.933266 0.000000
vt 0.936282 0.946935 0.000000
vt 0.875785 0.946074 0.000000
vt 0.935616 0.959203 0.000000
vt 0.877017 0.958621 0.000000
vt 0.987150 0.893213 0.000000
vt 0.988046 0.907439 0.000000
vt 0.988459 0.921780 0.000000
vt 0.988117 0.936116 0.000000
vt 0.987299 0.950332 0.000000
vt 0.986047 0.964448 0.000000
vt 0.991130 0.892918 0.000000
vt 0.992113 0.907214 0.000000
vt 0.992694 0.921749 0.000000
vt 0.992193 0.936281 0.000000
vt 0.991324 0.950617 0.000000
vt 0.990005 0.964808 0.000000
vt 0.863577 0.890772 0.000000
vt 0.858730 0.906262 0.000000
vt 0.858487 0.922311 0.000000
vt 0.859146 0.932380 0.000000
vt 0.861376 0.947166 0.000000
vt 0.866260 0.962147 0.000000
vt 0.852182 0.888352 0.000000
vt 0.849719 0.904590 0.000000
vt 0.848360 0.919458 0.000000
vt 0.847699 0.932799 0.000000
vt 0.849720 0.948368 0.000000
vt 0.852868 0.964703 0.000000
vt 0.836496 0.886417 0.000000
vt 0.836013 0.903188 0.000000
vt 0.835881 0.918635 0.000000
vt 0.835884 0.933719 0.000000
vt 0.836028 0.949198 0.000000
vt 0.836555 0.966051 0.000000
vt 0.787930 0.893469 0.000000
vt 0.726412 0.893906 0.000000
vt 0.789216 0.906343 0.000000
vt 0.725991 0.907010 0.000000
vt 0.789797 0.920835 0.000000
vt 0.725859 0.920254 0.000000
vt 0.789836 0.931442 0.000000
vt 0.726012 0.933537 0.000000
vt 0.789327 0.945955 0.000000
vt 0.726443 0.946749 0.000000
vt 0.788086 0.958876 0.000000
vt 0.727153 0.959786 0.000000
vt 0.672381 0.889666 0.000000
vt 0.671430 0.904783 0.000000
vt 0.670993 0.920022 0.000000
vt 0.671358 0.935257 0.000000
vt 0.672229 0.950365 0.000000
vt 0.673561 0.965365 0.000000
vt 0.668151 0.889352 0.000000
vt 0.667108 0.904545 0.000000
vt 0.666493 0.919991 0.000000
vt 0.667026 0.935433 0.000000
vt 0.667952 0.950668 0.000000
vt 0.669355 0.965748 0.000000
vt 0.832033 0.883014 0.000000
vt 0.832032 0.903151 0.000000
vt 0.832032 0.918626 0.000000
vt 0.832032 0.933732 0.000000
vt 0.832033 0.949238 0.000000
vt 0.832033 0.966077 0.000000
vt 0.803788 0.891430 0.000000
vt 0.805993 0.907583 0.000000
vt 0.804254 0.919668 0.000000
vt 0.804256 0.933042 0.000000
vt 0.802688 0.947168 0.000000
vt 0.800448 0.961489 0.000000
vt 0.524690 0.259915 0.000000
vt 0.515682 0.333689 0.000000
vt 0.476066 0.327477 0.000000
vt 0.482822 0.257485 0.000000
vt 0.430418 0.326214 0.000000
vt 0.423687 0.254932 0.000000
vt 0.430248 0.393589 0.000000
vt 0.399365 0.387898 0.000000
vt 0.413201 0.327559 0.000000
vt 0.404548 0.274847 0.000000
vt 0.375925 0.341743 0.000000
vt 0.368048 0.309536 0.000000
vt 0.342538 0.357042 0.000000
vt 0.336755 0.335350 0.000000
vt 0.313132 0.364626 0.000000
vt 0.311417 0.346742 0.000000
vt 0.327507 0.300885 0.000000
vt 0.328473 0.272050 0.000000
vt 0.321839 0.324786 0.000000
vt 0.310423 0.335815 0.000000
vt 0.328604 0.257840 0.000000
vt 0.519062 0.106928 0.000000
vt 0.555659 0.103936 0.000000
vt 0.565999 0.183676 0.000000
vt 0.524655 0.185822 0.000000
vt 0.481360 0.108853 0.000000
vt 0.483929 0.186579 0.000000
vt 0.443808 0.110001 0.000000
vt 0.435948 0.182256 0.000000
vt 0.405193 0.234502 0.000000
vt 0.625136 0.024983 0.000000
vt 0.659642 0.036593 0.000000
vt 0.612115 0.059622 0.000000
vt 0.596955 0.047460 0.000000
vt 0.581318 0.079937 0.000000
vt 0.600245 0.111641 0.000000
vt 0.581320 0.115982 0.000000
vt 0.546699 0.783894 0.000000
vt 0.546699 0.759604 0.000000
vt 0.417508 0.176401 0.000000
vt 0.366784 0.196921 0.000000
vt 0.376324 0.156537 0.000000
vt 0.329965 0.171353 0.000000
vt 0.335440 0.136803 0.000000
vt 0.296806 0.161983 0.000000
vt 0.295101 0.131918 0.000000
vt 0.328431 0.244129 0.000000
vt 0.324909 0.213640 0.000000
vt 0.314250 0.186921 0.000000
vt 0.297588 0.175624 0.000000
vt 0.513746 0.019704 0.000000
vt 0.441174 0.022569 0.000000
vt 0.406115 0.104070 0.000000
vt 0.368462 0.097774 0.000000
vt 0.367474 0.023154 0.000000
vt 0.330541 0.092113 0.000000
vt 0.329670 0.022715 0.000000
vt 0.497282 0.410875 0.000000
vt 0.479237 0.468564 0.000000
vt 0.448095 0.458241 0.000000
vt 0.462799 0.401315 0.000000
vt 0.419165 0.449344 0.000000
vt 0.392418 0.442705 0.000000
vt 0.367389 0.438673 0.000000
vt 0.369946 0.384653 0.000000
vt 0.343558 0.437287 0.000000
vt 0.341732 0.383962 0.000000
vt 0.320802 0.438470 0.000000
vt 0.315226 0.385723 0.000000
vt 0.471846 0.505557 0.000000
vt 0.442870 0.497800 0.000000
vt 0.415761 0.490573 0.000000
vt 0.390872 0.485087 0.000000
vt 0.367804 0.481783 0.000000
vt 0.345996 0.480741 0.000000
vt 0.325728 0.481956 0.000000
vt 0.466947 0.537827 0.000000
vt 0.468054 0.600290 0.000000
vt 0.444014 0.600546 0.000000
vt 0.440033 0.535062 0.000000
vt 0.421319 0.600570 0.000000
vt 0.415076 0.532635 0.000000
vt 0.400271 0.600789 0.000000
vt 0.392389 0.531048 0.000000
vt 0.380675 0.601473 0.000000
vt 0.521746 0.653937 0.000000
vt 0.892397 0.012530 0.000000
vt 0.872494 0.012530 0.000000
vt 0.525406 0.653937 0.000000
vt 0.525406 0.665973 0.000000
vt 0.928260 0.030349 0.000000
vt 0.521746 0.665973 0.000000
vt 0.953078 0.062458 0.000000
vt 0.852591 0.012530 0.000000
vt 0.521746 0.629882 0.000000
vt 0.816727 0.030349 0.000000
vt 0.525406 0.629882 0.000000
vt 0.791909 0.062458 0.000000
vt 0.521746 0.605833 0.000000
vt 0.783200 0.101824 0.000000
vt 0.525406 0.605833 0.000000
vt 0.891835 0.015068 0.000000
vt 0.872494 0.015068 0.000000
vt 0.926687 0.032384 0.000000
vt 0.950805 0.063587 0.000000
vt 0.853152 0.015068 0.000000
vt 0.922855 0.490519 0.000000
vt 0.922855 0.508445 0.000000
vt 0.911149 0.508445 0.000000
vt 0.911149 0.490519 0.000000
vt 0.946266 0.490519 0.000000
vt 0.546699 0.736662 0.000000
vt 0.546699 0.712374 0.000000
vt 0.546699 0.688094 0.000000
vt 0.546699 0.663999 0.000000
vt 0.538768 0.783894 0.000000
vt 0.538768 0.759604 0.000000
vt 0.538768 0.736662 0.000000
vt 0.538768 0.712374 0.000000
vt 0.538768 0.688094 0.000000
vt 0.538768 0.663999 0.000000
vt 0.596961 0.148456 0.000000
vt 0.127603 0.643171 0.000000
vt 0.119175 0.660671 0.000000
vt 0.091065 0.654256 0.000000
vt 0.091065 0.634833 0.000000
vt 0.157445 0.666969 0.000000
vt 0.141439 0.682312 0.000000
vt 0.174007 0.701358 0.000000
vt 0.154249 0.708914 0.000000
vt 0.174007 0.739528 0.000000
vt 0.155071 0.735207 0.000000
vt 0.157445 0.773919 0.000000
vt 0.142260 0.761809 0.000000
vt 0.103573 0.503522 0.000000
vt 0.126188 0.521557 0.000000
vt 0.126188 0.602606 0.000000
vt 0.103573 0.620641 0.000000
vt 0.138739 0.547618 0.000000
vt 0.138739 0.576544 0.000000
vt 0.068952 0.770472 0.000000
vt 0.050727 0.755939 0.000000
vt 0.050727 0.690626 0.000000
vt 0.068952 0.676092 0.000000
vt 0.040614 0.734937 0.000000
vt 0.040614 0.711627 0.000000
vt 0.759774 0.518592 0.000000
vt 0.759775 0.698796 0.000000
vt 0.748001 0.698797 0.000000
vt 0.748000 0.518592 0.000000
vt 0.783322 0.518592 0.000000
vt 0.783322 0.698795 0.000000
vt 0.806869 0.518592 0.000000
vt 0.806869 0.698794 0.000000
vt 0.736227 0.698798 0.000000
vt 0.736226 0.518592 0.000000
vt 0.712680 0.698798 0.000000
vt 0.712679 0.518592 0.000000
vt 0.689132 0.698798 0.000000
vt 0.689132 0.518592 0.000000
vt 0.602287 0.857484 0.000000
vt 0.047853 0.931995 0.000000
vt 0.625215 0.875769 0.000000
vt 0.625215 0.957939 0.000000
vt 0.602287 0.976224 0.000000
vt 0.946267 0.508445 0.000000
vt 0.969678 0.490519 0.000000
vt 0.969679 0.508445 0.000000
vt 0.899443 0.508445 0.000000
vt 0.899443 0.490519 0.000000
vt 0.876030 0.508445 0.000000
vt 0.876030 0.490519 0.000000
vt 0.812542 0.885045 0.000000
vt 0.813684 0.903928 0.000000
vt 0.815042 0.918797 0.000000
vt 0.814382 0.933460 0.000000
vt 0.813683 0.948369 0.000000
vt 0.811858 0.964044 0.000000
vt 0.826907 0.881790 0.000000
vt 0.828050 0.903188 0.000000
vt 0.828183 0.918635 0.000000
vt 0.828180 0.933719 0.000000
vt 0.828037 0.949199 0.000000
vt 0.827512 0.966052 0.000000
vt 0.666698 0.518592 0.000000
vt 0.852618 0.508445 0.000000
vt 0.559594 0.569471 0.000000
vt 0.581558 0.569471 0.000000
vt 0.559594 0.537374 0.000000
vt 0.581558 0.537374 0.000000
vt 0.559594 0.505188 0.000000
vt 0.581558 0.505188 0.000000
vt 0.559594 0.473002 0.000000
vt 0.581558 0.473002 0.000000
vt 0.559594 0.440816 0.000000
vt 0.581558 0.440816 0.000000
vt 0.559594 0.408719 0.000000
vt 0.581558 0.408719 0.000000
vt 0.852618 0.490519 0.000000
vt 0.918786 0.113115 0.000000
vt 0.896328 0.107364 0.000000
vt 0.896466 0.102106 0.000000
vt 0.919060 0.102700 0.000000
vt 0.909254 0.131644 0.000000
vt 0.891516 0.116718 0.000000
vt 0.892627 0.144202 0.000000
vt 0.768490 0.222497 0.000000
vt 0.766293 0.222786 0.000000
vt 0.763340 0.214826 0.000000
vt 0.765365 0.214074 0.000000
vt 0.766811 0.240386 0.000000
vt 0.764708 0.239694 0.000000
vt 0.757538 0.255776 0.000000
vt 0.755943 0.254239 0.000000
vt 0.760386 0.206865 0.000000
vt 0.762240 0.205651 0.000000
vt 0.748156 0.195083 0.000000
vt 0.749300 0.193186 0.000000
vt 0.732025 0.189774 0.000000
vt 0.732232 0.187569 0.000000
vt 0.346680 0.870515 0.000000
vt 0.332880 0.871854 0.000000
vt 0.335238 0.824866 0.000000
vt 0.374322 0.867589 0.000000
vt 0.394747 0.817574 0.000000
vt 0.401790 0.863339 0.000000
vt 0.319055 0.873229 0.000000
vt 0.785276 0.201361 0.000000
vt 0.735252 0.169743 0.000000
vt 0.818300 0.032384 0.000000
vt 0.794182 0.063587 0.000000
vt 0.785723 0.101824 0.000000
vt 0.890608 0.020613 0.000000
vt 0.872494 0.020613 0.000000
vt 0.923250 0.036831 0.000000
vt 0.945838 0.066055 0.000000
vt 0.854379 0.020613 0.000000
vt 0.821738 0.036831 0.000000
vt 0.799149 0.066055 0.000000
vt 0.791236 0.101824 0.000000
vt 0.885211 0.044940 0.000000
vt 0.923987 0.076843 0.000000
vt 0.836859 0.056326 0.000000
vt 0.815474 0.101824 0.000000
vt 0.961787 0.101824 0.000000
vt 0.525406 0.684040 0.000000
vt 0.959264 0.101824 0.000000
vt 0.953751 0.101824 0.000000
vt 0.521746 0.684040 0.000000
vt 0.525406 0.708140 0.000000
vt 0.872494 0.191117 0.000000
vt 0.892397 0.191117 0.000000
vt 0.529884 0.973740 0.000000
vt 0.526873 0.977678 0.000000
vt 0.515755 0.964307 0.000000
vt 0.519471 0.961217 0.000000
vt 0.559514 0.987269 0.000000
vt 0.558510 0.992123 0.000000
vt 0.592080 0.986602 0.000000
vt 0.593282 0.991411 0.000000
vt 0.504637 0.950936 0.000000
vt 0.509058 0.948694 0.000000
vt 0.496205 0.917195 0.000000
vt 0.501161 0.917093 0.000000
vt 0.503248 0.883137 0.000000
vt 0.507757 0.885195 0.000000
vt 0.371596 0.530520 0.000000
vt 0.362080 0.602799 0.000000
vt 0.352073 0.531105 0.000000
vt 0.341629 0.605256 0.000000
vt 0.331974 0.533023 0.000000
vt 0.472017 0.643487 0.000000
vt 0.450440 0.649204 0.000000
vt 0.430170 0.655973 0.000000
vt 0.411015 0.662851 0.000000
vt 0.392558 0.669097 0.000000
vt 0.374376 0.674190 0.000000
vt 0.352320 0.678378 0.000000
vt 0.486525 0.738508 0.000000
vt 0.466673 0.741887 0.000000
vt 0.447204 0.746081 0.000000
vt 0.427938 0.750731 0.000000
vt 0.408675 0.755455 0.000000
vt 0.389240 0.759924 0.000000
vt 0.365559 0.764570 0.000000
vt 0.499072 0.512131 0.000000
vt 0.495830 0.540128 0.000000
vt 0.654572 0.425899 0.000000
vt 0.640066 0.425899 0.000000
vt 0.640066 0.405914 0.000000
vt 0.883122 0.123058 0.000000
vt 0.896604 0.096848 0.000000
vt 0.919334 0.092285 0.000000
vt 0.892291 0.087253 0.000000
vt 0.910790 0.073280 0.000000
vt 0.884241 0.080480 0.000000
vt 0.894845 0.059865 0.000000
vt 0.291255 0.874758 0.000000
vt 0.521746 0.708140 0.000000
vt 0.928260 0.173299 0.000000
vt 0.525406 0.732052 0.000000
vt 0.658855 0.252454 0.000000
vt 0.635512 0.138724 0.000000
vt 0.620898 0.127068 0.000000
vt 0.620898 0.074692 0.000000
vt 0.635513 0.063037 0.000000
vt 0.612787 0.110226 0.000000
vt 0.612788 0.091533 0.000000
vt 0.637940 0.902191 0.000000
vt 0.637940 0.931517 0.000000
vt 0.047853 0.984403 0.000000
vt 0.080289 0.931995 0.000000
vt 0.080289 0.984403 0.000000
vt 0.112951 0.931995 0.000000
vt 0.112951 0.984403 0.000000
vt 0.143067 0.931995 0.000000
vt 0.143067 0.984403 0.000000
vt 0.173184 0.931995 0.000000
vt 0.173184 0.984403 0.000000
vt 0.205014 0.931995 0.000000
vt 0.205014 0.984403 0.000000
vt 0.879463 0.883710 0.000000
vt 0.935641 0.885415 0.000000
vt 0.879301 0.970139 0.000000
vt 0.934700 0.970906 0.000000
vt 0.985889 0.879281 0.000000
vt 0.984447 0.978275 0.000000
vt 0.989988 0.879416 0.000000
vt 0.091158 0.775541 0.000000
vt 0.988528 0.978241 0.000000
vt 0.091158 0.671024 0.000000
vt 0.868198 0.975695 0.000000
vt 0.856114 0.871682 0.000000
vt 0.856208 0.980858 0.000000
vt 0.838489 0.867191 0.000000
vt 0.841612 0.985051 0.000000
vt 0.832034 0.866254 0.000000
vt 0.832034 0.986143 0.000000
vt 0.727117 0.881373 0.000000
vt 0.785581 0.881719 0.000000
vt 0.728127 0.972222 0.000000
vt 0.785789 0.970737 0.000000
vt 0.673719 0.874860 0.000000
vt 0.675262 0.980058 0.000000
vt 0.669363 0.875004 0.000000
vt 0.076017 0.497232 0.000000
vt 0.670926 0.980022 0.000000
vt 0.076017 0.626930 0.000000
vt 0.795923 0.975685 0.000000
vt 0.807964 0.871623 0.000000
vt 0.807871 0.980849 0.000000
vt 0.825569 0.867121 0.000000
vt 0.822456 0.985051 0.000000
vt 0.654572 0.405914 0.000000
vt 0.654572 0.466530 0.000000
vt 0.640066 0.466530 0.000000
vt 0.654572 0.507120 0.000000
vt 0.640066 0.507120 0.000000
vt 0.640066 0.376444 0.000000
vt 0.654572 0.376444 0.000000
vt 0.640066 0.335603 0.000000
vt 0.633511 0.153352 0.000000
vt 0.625141 0.170926 0.000000
vt 0.581420 0.601927 0.000000
vt 0.127603 0.797718 0.000000
vt 0.119175 0.780219 0.000000
vt 0.016769 0.931995 0.000000
vt 0.016769 0.984403 0.000000
vt 0.546699 0.808405 0.000000
vt 0.538768 0.808389 0.000000
vt 0.574412 0.851122 0.000000
vt 0.654572 0.335603 0.000000
vt 0.640066 0.295019 0.000000
vt 0.654572 0.295019 0.000000
vt 0.640066 0.250890 0.000000
vt 0.654572 0.250890 0.000000
vt 0.624216 0.425899 0.000000
vt 0.624216 0.405914 0.000000
vt 0.624216 0.466530 0.000000
vt 0.624216 0.507120 0.000000
vt 0.657602 0.142827 0.000000
vt 0.624216 0.376444 0.000000
vt 0.657604 0.058934 0.000000
vt 0.624216 0.335603 0.000000
vt 0.624216 0.295019 0.000000
vt 0.624216 0.250890 0.000000
vt 0.495521 0.599404 0.000000
vt 0.524017 0.855971 0.000000
vt 0.527186 0.859782 0.000000
vt 0.953078 0.141190 0.000000
vt 0.521746 0.732052 0.000000
vt 0.852591 0.191117 0.000000
vt 0.525406 0.755777 0.000000
vt 0.816727 0.173299 0.000000
vt 0.521746 0.755777 0.000000
vt 0.791909 0.141190 0.000000
vt 0.263005 0.828665 0.000000
vt 0.715661 0.191928 0.000000
vt 0.714890 0.189852 0.000000
vt 0.829602 0.490519 0.000000
vt 0.829602 0.508445 0.000000
vt 0.874616 0.078016 0.000000
vt 0.875225 0.054841 0.000000
vt 0.829209 0.696386 0.000000
vt 0.829209 0.518592 0.000000
vt 0.499131 0.639285 0.000000
vt 0.511263 0.735585 0.000000
vt 0.556591 0.341947 0.000000
vt 0.659642 0.178800 0.000000
vt 0.559594 0.377031 0.000000
vt 0.581558 0.377031 0.000000
vt 0.091065 0.786636 0.000000
vt 0.091065 0.806059 0.000000
vt 0.237153 0.931995 0.000000
vt 0.237153 0.984403 0.000000
vt 0.546717 0.640037 0.000000
vt 0.538786 0.640037 0.000000
vt 0.574412 0.982587 0.000000
vt 0.568707 0.262612 0.000000
vt 0.293253 0.094557 0.000000
vt 0.510880 0.479350 0.000000
vt 0.623780 0.975947 0.000000
vt 0.620611 0.972135 0.000000
vt 0.872494 0.188580 0.000000
vt 0.891835 0.188580 0.000000
vt 0.926687 0.171264 0.000000
vt 0.950805 0.140061 0.000000
vt 0.853152 0.188580 0.000000
vt 0.818300 0.171264 0.000000
vt 0.794182 0.140061 0.000000
vt 0.263423 0.874522 0.000000
vt 0.742133 0.263280 0.000000
vt 0.742903 0.265357 0.000000
vt 0.992433 0.490519 0.000000
vt 0.992434 0.508445 0.000000
vt 0.873380 0.125014 0.000000
vt 0.872771 0.148188 0.000000
vt 0.898640 0.518592 0.000000
vt 0.910414 0.518592 0.000000
vt 0.532150 0.421846 0.000000
vt 0.591057 0.425899 0.000000
vt 0.591057 0.405914 0.000000
vt 0.591057 0.466530 0.000000
vt 0.669835 0.182709 0.000000
vt 0.872494 0.183034 0.000000
vt 0.890608 0.183034 0.000000
vt 0.923250 0.166816 0.000000
vt 0.945838 0.137593 0.000000
vt 0.854379 0.183034 0.000000
vt 0.821738 0.166816 0.000000
vt 0.799149 0.137593 0.000000
vt 0.885211 0.158708 0.000000
vt 0.876156 0.756343 0.000000
vt 0.935302 0.758431 0.000000
vt 0.935699 0.770761 0.000000
vt 0.874885 0.768838 0.000000
vt 0.935825 0.783224 0.000000
vt 0.874312 0.785919 0.000000
vt 0.935682 0.795723 0.000000
vt 0.874275 0.794488 0.000000
vt 0.935277 0.808156 0.000000
vt 0.874781 0.807295 0.000000
vt 0.934611 0.820424 0.000000
vt 0.876013 0.819843 0.000000
vt 0.933695 0.832128 0.000000
vt 0.878296 0.831360 0.000000
vt 0.986145 0.754434 0.000000
vt 0.987042 0.768660 0.000000
vt 0.987455 0.783001 0.000000
vt 0.987113 0.797337 0.000000
vt 0.986294 0.811554 0.000000
vt 0.985043 0.825669 0.000000
vt 0.983443 0.839496 0.000000
vt 0.990126 0.754139 0.000000
vt 0.991109 0.768436 0.000000
vt 0.991689 0.782971 0.000000
vt 0.991189 0.797502 0.000000
vt 0.990319 0.811839 0.000000
vt 0.989001 0.826029 0.000000
vt 0.987524 0.839462 0.000000
vt 0.862573 0.751994 0.000000
vt 0.878459 0.744931 0.000000
vt 0.857726 0.767483 0.000000
vt 0.857482 0.783532 0.000000
vt 0.858141 0.793601 0.000000
vt 0.860372 0.808388 0.000000
vt 0.865256 0.823368 0.000000
vt 0.851178 0.749573 0.000000
vt 0.855109 0.732904 0.000000
vt 0.848714 0.765811 0.000000
vt 0.847356 0.780680 0.000000
vt 0.846694 0.794020 0.000000
vt 0.848716 0.809589 0.000000
vt 0.851864 0.825924 0.000000
vt 0.835492 0.747638 0.000000
vt 0.837485 0.728412 0.000000
vt 0.835009 0.764410 0.000000
vt 0.834876 0.779857 0.000000
vt 0.834879 0.794940 0.000000
vt 0.835023 0.810420 0.000000
vt 0.835550 0.827272 0.000000
vt 0.831028 0.744235 0.000000
vt 0.831030 0.727475 0.000000
vt 0.831027 0.764372 0.000000
vt 0.831027 0.779848 0.000000
vt 0.831027 0.794953 0.000000
vt 0.831028 0.810459 0.000000
vt 0.831029 0.827298 0.000000
vt 0.786926 0.754691 0.000000
vt 0.788211 0.767565 0.000000
vt 0.724987 0.768231 0.000000
vt 0.725407 0.755127 0.000000
vt 0.788792 0.782057 0.000000
vt 0.724854 0.781475 0.000000
vt 0.788831 0.792664 0.000000
vt 0.725008 0.794758 0.000000
vt 0.788323 0.807176 0.000000
vt 0.725439 0.807970 0.000000
vt 0.787081 0.820097 0.000000
vt 0.726148 0.821007 0.000000
vt 0.784784 0.831959 0.000000
vt 0.727123 0.833443 0.000000
vt 0.670426 0.766005 0.000000
vt 0.671377 0.750887 0.000000
vt 0.669988 0.781244 0.000000
vt 0.670353 0.796478 0.000000
vt 0.671224 0.811586 0.000000
vt 0.672556 0.826586 0.000000
vt 0.674258 0.841280 0.000000
vt 0.666104 0.765766 0.000000
vt 0.667147 0.750573 0.000000
vt 0.665488 0.781212 0.000000
vt 0.666021 0.796654 0.000000
vt 0.666947 0.811889 0.000000
vt 0.668350 0.826969 0.000000
vt 0.669921 0.841244 0.000000
vt 0.784577 0.742940 0.000000
vt 0.794956 0.738320 0.000000
vt 0.802784 0.752651 0.000000
vt 0.804988 0.768804 0.000000
vt 0.803250 0.780889 0.000000
vt 0.803252 0.794263 0.000000
vt 0.801684 0.808390 0.000000
vt 0.799444 0.822710 0.000000
vt 0.806959 0.732845 0.000000
vt 0.811538 0.746267 0.000000
vt 0.812679 0.765150 0.000000
vt 0.814038 0.780019 0.000000
vt 0.813378 0.794682 0.000000
vt 0.812679 0.809590 0.000000
vt 0.810854 0.825266 0.000000
vt 0.824564 0.728342 0.000000
vt 0.825903 0.743012 0.000000
vt 0.827046 0.764410 0.000000
vt 0.827178 0.779857 0.000000
vt 0.827175 0.794940 0.000000
vt 0.827033 0.810420 0.000000
vt 0.826507 0.827273 0.000000
vt 0.079607 0.298763 0.000000
vt 0.122544 0.288759 0.000000
vt 0.142408 0.359387 0.000000
vt 0.102849 0.373530 0.000000
vt 0.182590 0.276018 0.000000
vt 0.188587 0.349301 0.000000
vt 0.202394 0.417463 0.000000
vt 0.206234 0.347275 0.000000
vt 0.232276 0.405227 0.000000
vt 0.205193 0.292642 0.000000
vt 0.248015 0.320565 0.000000
vt 0.246398 0.354235 0.000000
vt 0.284128 0.340225 0.000000
vt 0.282633 0.362882 0.000000
vt 0.279608 0.275767 0.000000
vt 0.286399 0.304148 0.000000
vt 0.296886 0.326825 0.000000
vt 0.278109 0.261072 0.000000
vt 0.059841 0.137222 0.000000
vt 0.066656 0.221377 0.000000
vt 0.099959 0.133488 0.000000
vt 0.109336 0.215477 0.000000
vt 0.139579 0.129180 0.000000
vt 0.158369 0.203516 0.000000
vt 0.176500 0.194771 0.000000
vt 0.197933 0.252335 0.000000
vt 0.215950 0.168242 0.000000
vt 0.231455 0.209128 0.000000
vt 0.255171 0.142064 0.000000
vt 0.265163 0.176118 0.000000
vt 0.276098 0.215474 0.000000
vt 0.276605 0.246281 0.000000
vt 0.282524 0.188580 0.000000
vt 0.178228 0.117701 0.000000
vt 0.170224 0.031818 0.000000
vt 0.216678 0.106233 0.000000
vt 0.255256 0.095976 0.000000
vt 0.251142 0.024181 0.000000
vt 0.137679 0.449422 0.000000
vt 0.170997 0.432219 0.000000
vt 0.198678 0.486993 0.000000
vt 0.169260 0.504844 0.000000
vt 0.225857 0.471316 0.000000
vt 0.251126 0.458582 0.000000
vt 0.260975 0.395853 0.000000
vt 0.275079 0.448959 0.000000
vt 0.288799 0.389364 0.000000
vt 0.694148 0.024982 0.000000
vt 0.707170 0.059621 0.000000
vt 0.722330 0.047458 0.000000
vt 0.737968 0.079936 0.000000
vt 0.719041 0.111640 0.000000
vt 0.737966 0.115981 0.000000
vt 0.722325 0.148455 0.000000
vt 0.685773 0.153351 0.000000
vt 0.694143 0.170926 0.000000
vt 0.054527 0.643173 0.000000
vt 0.062954 0.660672 0.000000
vt 0.559319 0.634383 0.000000
vt 0.581282 0.634383 0.000000
vt 0.559319 0.666480 0.000000
vt 0.581282 0.666480 0.000000
vt 0.559319 0.698666 0.000000
vt 0.581282 0.698666 0.000000
vt 0.559319 0.730852 0.000000
vt 0.581282 0.730852 0.000000
vt 0.559319 0.763037 0.000000
vt 0.581282 0.763037 0.000000
vt 0.559319 0.795134 0.000000
vt 0.581282 0.795134 0.000000
vt 0.024684 0.666972 0.000000
vt 0.040704 0.682315 0.000000
vt 0.008123 0.701363 0.000000
vt 0.027893 0.708917 0.000000
vt 0.008123 0.739533 0.000000
vt 0.027059 0.735210 0.000000
vt 0.024684 0.773922 0.000000
vt 0.039870 0.761812 0.000000
vt 0.054527 0.797720 0.000000
vt 0.062954 0.780220 0.000000
vt 0.546537 0.857484 0.000000
vt 0.546537 0.976224 0.000000
vt 0.523609 0.957939 0.000000
vt 0.523609 0.875769 0.000000
vt 0.426454 0.931995 0.000000
vt 0.426454 0.984403 0.000000
vt 0.457538 0.984403 0.000000
vt 0.457537 0.931995 0.000000
vt 0.394018 0.931995 0.000000
vt 0.394018 0.984403 0.000000
vt 0.361356 0.931995 0.000000
vt 0.361356 0.984403 0.000000
vt 0.331240 0.931995 0.000000
vt 0.331240 0.984403 0.000000
vt 0.301123 0.931995 0.000000
vt 0.301123 0.984403 0.000000
vt 0.269293 0.931995 0.000000
vt 0.269293 0.984403 0.000000
vt 0.546735 0.496180 0.000000
vt 0.538804 0.496180 0.000000
vt 0.538804 0.471685 0.000000
vt 0.546735 0.471669 0.000000
vt 0.546735 0.520471 0.000000
vt 0.538804 0.520471 0.000000
vt 0.546735 0.543413 0.000000
vt 0.538804 0.543413 0.000000
vt 0.546735 0.567701 0.000000
vt 0.538804 0.567701 0.000000
vt 0.546735 0.591981 0.000000
vt 0.538804 0.591981 0.000000
vt 0.546735 0.616075 0.000000
vt 0.538804 0.616075 0.000000
vt 0.298267 0.442308 0.000000
vt 0.213496 0.525945 0.000000
vt 0.185922 0.541168 0.000000
vt 0.238999 0.511971 0.000000
vt 0.262486 0.500467 0.000000
vt 0.284510 0.491689 0.000000
vt 0.305675 0.485516 0.000000
vt 0.199495 0.572944 0.000000
vt 0.225979 0.562880 0.000000
vt 0.240338 0.629655 0.000000
vt 0.216255 0.636531 0.000000
vt 0.250315 0.553867 0.000000
vt 0.262803 0.623081 0.000000
vt 0.272405 0.546413 0.000000
vt 0.283531 0.617286 0.000000
vt 0.292735 0.540576 0.000000
vt 0.302835 0.612435 0.000000
vt 0.311968 0.536207 0.000000
vt 0.321232 0.608539 0.000000
vt 0.248694 0.679735 0.000000
vt 0.225658 0.680896 0.000000
vt 0.270586 0.680086 0.000000
vt 0.291274 0.680931 0.000000
vt 0.310972 0.681410 0.000000
vt 0.329965 0.680889 0.000000
vt 0.263025 0.775071 0.000000
vt 0.242907 0.778635 0.000000
vt 0.282885 0.772573 0.000000
vt 0.302573 0.770731 0.000000
vt 0.322193 0.769106 0.000000
vt 0.341837 0.767326 0.000000
vt 0.591057 0.507120 0.000000
vt 0.591057 0.376444 0.000000
vt 0.591057 0.335603 0.000000
vt 0.591057 0.295019 0.000000
vt 0.591057 0.250890 0.000000
vt 0.640066 0.547317 0.000000
vt 0.654572 0.547317 0.000000
vt 0.624216 0.547317 0.000000
vt 0.591057 0.547317 0.000000
vt 0.654572 0.668181 0.000000
vt 0.654572 0.697688 0.000000
vt 0.640066 0.697688 0.000000
vt 0.640066 0.668181 0.000000
vt 0.654572 0.627430 0.000000
vt 0.640066 0.627430 0.000000
vt 0.654572 0.587135 0.000000
vt 0.640066 0.587135 0.000000
vt 0.654572 0.717794 0.000000
vt 0.640066 0.717794 0.000000
vt 0.654572 0.749259 0.000000
vt 0.640066 0.749259 0.000000
vt 0.654572 0.790270 0.000000
vt 0.640066 0.790270 0.000000
vt 0.624216 0.697688 0.000000
vt 0.624216 0.668181 0.000000
vt 0.624216 0.627430 0.000000
vt 0.624216 0.587135 0.000000
vt 0.624216 0.717794 0.000000
vt 0.624216 0.749259 0.000000
vt 0.624216 0.790270 0.000000
vt 0.591057 0.697688 0.000000
vt 0.591057 0.668181 0.000000
vt 0.591057 0.627430 0.000000
vt 0.591057 0.587135 0.000000
vt 0.591057 0.717794 0.000000
vt 0.591057 0.749259 0.000000
vt 0.591057 0.790270 0.000000
vt 0.638739 0.883223 0.000000
vt 0.628326 0.870701 0.000000
vt 0.632042 0.867611 0.000000
vt 0.643160 0.880982 0.000000
vt 0.646636 0.914824 0.000000
vt 0.651592 0.914723 0.000000
vt 0.640039 0.946722 0.000000
vt 0.644548 0.948781 0.000000
vt 0.617913 0.858178 0.000000
vt 0.620924 0.854240 0.000000
vt 0.588283 0.844649 0.000000
vt 0.589287 0.839795 0.000000
vt 0.555717 0.845316 0.000000
vt 0.554515 0.840507 0.000000
vt 0.695554 0.249557 0.000000
vt 0.692429 0.241134 0.000000
vt 0.694454 0.240383 0.000000
vt 0.697407 0.248344 0.000000
vt 0.708494 0.262023 0.000000
vt 0.709637 0.260126 0.000000
vt 0.725561 0.267640 0.000000
vt 0.836859 0.147322 0.000000
vt 0.510885 0.931517 0.000000
vt 0.510885 0.902191 0.000000
vt 0.828664 0.110745 0.000000
vt 0.828938 0.100330 0.000000
vt 0.236327 0.874320 0.000000
vt 0.043827 0.868683 0.000000
vt 0.126232 0.872268 0.000000
vt 0.154096 0.826061 0.000000
vt 0.140044 0.872182 0.000000
vt 0.098476 0.871360 0.000000
vt 0.725768 0.265434 0.000000
vt 0.689304 0.232711 0.000000
vt 0.691500 0.232422 0.000000
vt 0.690982 0.214822 0.000000
vt 0.693086 0.215515 0.000000
vt 0.700256 0.199433 0.000000
vt 0.701851 0.200969 0.000000
vt 0.736349 0.490519 0.000000
vt 0.736348 0.508445 0.000000
vt 0.748054 0.508445 0.000000
vt 0.748055 0.490519 0.000000
vt 0.712937 0.490519 0.000000
vt 0.712936 0.508445 0.000000
vt 0.689525 0.490519 0.000000
vt 0.689525 0.508445 0.000000
vt 0.759760 0.508445 0.000000
vt 0.759761 0.490519 0.000000
vt 0.783173 0.508445 0.000000
vt 0.783173 0.490519 0.000000
vt 0.806586 0.508445 0.000000
vt 0.806586 0.490519 0.000000
vt 0.851531 0.100924 0.000000
vt 0.851393 0.106182 0.000000
vt 0.837208 0.129749 0.000000
vt 0.855706 0.115776 0.000000
vt 0.853152 0.143164 0.000000
vt 0.863756 0.122549 0.000000
vt 0.829211 0.089916 0.000000
vt 0.851669 0.095666 0.000000
vt 0.838742 0.071386 0.000000
vt 0.856481 0.086312 0.000000
vt 0.855369 0.058827 0.000000
vt 0.864875 0.079971 0.000000
vt 0.113363 0.770472 0.000000
vt 0.113363 0.676092 0.000000
vt 0.131588 0.690626 0.000000
vt 0.131588 0.755939 0.000000
vt 0.910416 0.698788 0.000000
vt 0.898643 0.698789 0.000000
vt 0.875094 0.518592 0.000000
vt 0.875095 0.698790 0.000000
vt 0.851548 0.518592 0.000000
vt 0.851548 0.698791 0.000000
vt 0.922187 0.518592 0.000000
vt 0.922189 0.698787 0.000000
vt 0.945734 0.518592 0.000000
vt 0.945735 0.698787 0.000000
vt 0.969281 0.518592 0.000000
vt 0.969281 0.698786 0.000000
vt 0.679692 0.138724 0.000000
vt 0.679693 0.063038 0.000000
vt 0.694308 0.074693 0.000000
vt 0.694307 0.127070 0.000000
vt 0.702418 0.091535 0.000000
vt 0.702418 0.110228 0.000000
vt 0.141702 0.711627 0.000000
vt 0.141702 0.734937 0.000000
vt 0.048460 0.503522 0.000000
vt 0.048460 0.620641 0.000000
vt 0.025845 0.602606 0.000000
vt 0.025845 0.521557 0.000000
vt 0.013295 0.576544 0.000000
vt 0.013295 0.547618 0.000000
vt 0.934636 0.746636 0.000000
vt 0.984885 0.740502 0.000000
vt 0.988983 0.740637 0.000000
vt 0.867194 0.836916 0.000000
vt 0.855203 0.842079 0.000000
vt 0.840608 0.846272 0.000000
vt 0.831030 0.847365 0.000000
vt 0.726112 0.742594 0.000000
vt 0.672714 0.736081 0.000000
vt 0.668359 0.736226 0.000000
vt 0.794918 0.836906 0.000000
vt 0.806866 0.842070 0.000000
vt 0.821451 0.846273 0.000000
vt 0.581282 0.826823 0.000000
vt 0.559319 0.826823 0.000000
vt 0.666769 0.508445 0.000000
vt 0.666770 0.490519 0.000000
vt 0.991715 0.518592 0.000000
vt 0.099371 0.824347 0.000000
vt 0.671285 0.202341 0.000000
vt 0.686423 0.467327 0.000000
vt 0.945337 0.325334 0.000000
vt 0.020505 0.139796 0.000000
vt 0.022773 0.226159 0.000000
vt 0.014569 0.046206 0.000000
vt 0.159411 0.555002 0.000000
vt 0.170500 0.583363 0.000000
vt 0.188212 0.643958 0.000000
vt 0.197360 0.685488 0.000000
vt 0.217972 0.784423 0.000000
vt 0.062030 0.390192 0.000000
vt 0.034152 0.309655 0.000000
vt 0.138989 0.523481 0.000000
vt 0.103924 0.468303 0.000000
vt 0.640066 0.829606 0.000000
vt 0.654572 0.829606 0.000000
vt 0.624216 0.829606 0.000000
vt 0.591057 0.829606 0.000000
vt 0.794956 0.738320 0.000000
vt 0.795960 0.877099 0.000000
vt 0.795960 0.877099 0.000000
vt 0.666698 0.696394 0.000000
vt 0.991715 0.696382 0.000000
vt 0.829209 0.696386 0.000000
vt 0.867473 0.738441 0.000000
vt 0.867473 0.738441 0.000000
vt 0.868477 0.877220 0.000000
vt 0.868477 0.877220 0.000000
vt 0.680867 0.046876 0.000000
vt 0.937124 0.315271 0.000000
vt 0.869695 0.328275 0.000000
vt 0.874758 0.317696 0.000000
vt 0.825029 0.274410 0.000000
vt 0.837930 0.273284 0.000000
vt 0.070758 0.870732 0.000000
vt 0.153797 0.872166 0.000000
vt 0.669162 0.250995 0.000000
vt 0.665531 0.465330 0.000000
vt 0.669050 0.390946 0.000000
vt 0.787366 0.270330 0.000000
vt 0.731433 0.393031 0.000000
vt 0.963577 0.476035 0.000000
vt 0.767739 0.271839 0.000000
vt 0.918846 0.470850 0.000000
vt 0.717621 0.296264 0.000000
vt 0.926832 0.395699 0.000000
vt 0.871855 0.468554 0.000000
vt 0.714428 0.284639 0.000000
vt 0.882193 0.393329 0.000000
vt 0.211502 0.829769 0.000000
vt 0.825721 0.467525 0.000000
vt 0.827858 0.392111 0.000000
vt 0.778607 0.466645 0.000000
vt 0.777606 0.392610 0.000000
vt 0.181502 0.873054 0.000000
vt 0.209225 0.873135 0.000000
vt 0.297761 0.884083 0.000000
vt 0.352820 0.884083 0.000000
vt 0.352820 0.921259 0.000000
vt 0.297761 0.921259 0.000000
vt 0.188759 0.884083 0.000000
vt 0.243041 0.884083 0.000000
vt 0.243041 0.921259 0.000000
vt 0.188759 0.921259 0.000000
vt 0.080058 0.921259 0.000000
vt 0.080058 0.884083 0.000000
vt 0.134385 0.921259 0.000000
vt 0.134385 0.884083 0.000000
vt 0.025625 0.884083 0.000000
vt 0.025625 0.921259 0.000000
vt 0.982966 0.476460 0.000000
vt 0.993224 0.402336 0.000000
vt 0.022930 0.819198 0.000000
vt 0.017017 0.865172 0.000000
vt 0.525406 0.582000 0.000000
vt 0.521746 0.582000 0.000000
vt 0.521746 0.846143 0.000000
vt 0.521746 0.834065 0.000000
vt 0.525406 0.834065 0.000000
vt 0.525406 0.846143 0.000000
vt 0.521746 0.534568 0.000000
vt 0.525406 0.534568 0.000000
vt 0.521746 0.558380 0.000000
vt 0.525406 0.558380 0.000000
vt 0.521746 0.821987 0.000000
vt 0.525406 0.821987 0.000000
vt 0.521746 0.803870 0.000000
vt 0.525406 0.803870 0.000000
vt 0.521746 0.779718 0.000000
vt 0.525406 0.779718 0.000000
vt 0.521746 0.510559 0.000000
vt 0.525406 0.510559 0.000000
# 1032 texture coords

g Zylinder004
usemtl wire_166229229
s 9
f 319/941 1/978 3/979 131/1 
f 131/1 3/979 2/981 
s 10
f 486/982 487/984 4/986 1/1011 
f 1/1011 4/986 3/1012 
s 9
f 487/984 488/987 5/989 4/986 
s 10
f 488/987 133/991 6/992 5/989 
s 9
f 133/991 132/993 7/994 6/992 
s 10
f 132/993 131/1 2/981 7/994 
s 12
f 251/997 252/998 345/999 8/1000 
f 330/1001 253/1002 10/1003 9/1004 
s 9
f 253/1002 251/997 8/1000 10/1003 
s 1
f 11/11 12/10 14/12 13/13 
f 13/13 14/12 16/14 15/15 
f 15/15 16/14 18/16 17/17 
f 17/17 18/16 20/18 19/19 
f 19/19 20/18 22/20 21/21 
f 22/20 360/412 361/411 21/21 
f 12/10 23/22 24/23 14/12 
f 14/12 24/23 25/24 16/14 
f 16/14 25/24 26/25 18/16 
f 18/16 26/25 27/26 20/18 
f 20/18 27/26 28/27 22/20 
f 28/27 368/414 360/412 22/20 
f 23/22 29/28 30/29 24/23 
f 24/23 30/29 31/30 25/24 
f 25/24 31/30 32/31 26/25 
f 26/25 32/31 33/32 27/26 
f 27/26 33/32 34/33 28/27 
f 34/33 304/417 368/414 28/27 
f 11/11 35/34 680/967 301/409 
f 13/13 36/35 35/34 11/11 
f 15/15 37/36 36/35 13/13 
f 17/17 38/37 37/36 15/15 
f 19/19 39/38 38/37 17/17 
f 21/21 40/39 39/38 19/19 
f 41/40 305/420 680/968 35/34 
f 36/35 42/41 41/40 35/34 
f 37/36 43/42 42/41 36/35 
f 38/37 44/43 43/42 37/36 
f 39/38 45/44 44/43 38/37 
f 40/39 46/45 45/44 39/38 
f 47/46 388/422 305/420 41/40 
f 42/41 48/47 47/46 41/40 
f 43/42 49/48 48/47 42/41 
f 44/43 50/49 49/48 43/42 
f 45/44 51/50 50/49 44/43 
f 46/45 52/51 51/50 45/44 
f 53/76 395/424 388/422 47/46 
f 48/47 54/77 53/76 47/46 
f 49/48 55/78 54/77 48/47 
f 50/49 56/79 55/78 49/48 
f 51/50 57/80 56/79 50/49 
f 52/51 58/81 57/80 51/50 
f 60/52 62/54 61/55 59/53 
f 62/54 64/56 63/57 61/55 
f 64/56 66/58 65/59 63/57 
f 66/58 68/60 67/61 65/59 
f 68/60 70/62 69/63 67/61 
f 309/429 308/428 69/63 70/62 
f 59/53 61/55 72/65 71/64 
f 61/55 63/57 73/66 72/65 
f 63/57 65/59 74/67 73/66 
f 65/59 67/61 75/68 74/67 
f 67/61 69/63 76/69 75/68 
f 308/428 419/431 76/69 69/63 
f 71/64 72/65 78/71 77/70 
f 72/65 73/66 79/72 78/71 
f 73/66 74/67 80/73 79/72 
f 74/67 75/68 81/74 80/73 
f 75/68 76/69 82/75 81/74 
f 419/431 426/434 82/75 76/69 
f 60/52 427/427 428/960 83/82 
f 62/54 60/52 83/82 84/83 
f 64/56 62/54 84/83 85/84 
f 66/58 64/56 85/84 86/85 
f 68/60 66/58 86/85 87/86 
f 70/62 68/60 87/86 88/87 
f 428/961 311/437 89/260 83/82 
f 84/83 83/82 89/260 90/261 
f 85/84 84/83 90/261 91/262 
f 86/85 85/84 91/262 92/263 
f 87/86 86/85 92/263 93/264 
f 88/87 87/86 93/264 94/265 
f 311/437 312/439 95/266 89/260 
f 90/261 89/260 95/266 96/267 
f 91/262 90/261 96/267 97/268 
f 92/263 91/262 97/268 98/269 
f 93/264 92/263 98/269 99/270 
f 94/265 93/264 99/270 100/271 
f 312/439 395/424 53/76 95/266 
f 96/267 95/266 53/76 54/77 
f 97/268 96/267 54/77 55/78 
f 98/269 97/268 55/78 56/79 
f 99/270 98/269 56/79 57/80 
f 100/271 99/270 57/80 58/81 
f 300/89 299/90 102/91 101/88 
f 102/91 299/90 298/92 103/93 
f 106/94 105/95 297/96 298/92 
f 297/96 296/98 107/99 104/97 
f 296/98 295/100 109/101 107/99 
f 295/100 344/102 314/103 109/101 
f 104/97 107/99 112/104 111/105 
f 107/99 109/101 113/106 112/104 
f 314/103 316/107 113/106 109/101 
f 114/108 103/93 104/97 111/105 
f 466/110 342/111 294/112 115/109 
f 115/109 294/112 293/114 116/113 
f 117/115 116/113 293/114 292/116 
f 119/117 291/127 292/116 103/93 
f 121/128 290/129 291/127 119/117 
f 123/130 289/131 290/129 121/128 
f 317/132 343/133 289/131 123/130 
f 119/117 125/134 124/135 121/128 
f 121/128 124/135 126/136 123/130 
f 126/136 318/137 317/132 123/130 
f 119/117 103/93 114/108 125/134 
f 115/109 127/138 466/110 
f 116/113 128/139 127/138 115/109 
f 117/115 128/139 116/113 
f 118/140 129/142 128/139 117/115 
f 120/141 129/142 118/140 
f 122/143 130/144 129/142 120/141 
s off
f 131/120 135/121 134/118 319/119 
f 136/122 135/121 131/120 
f 132/123 137/124 136/122 131/120 
f 138/209 137/124 132/123 
f 133/449 139/450 138/209 132/123 
f 134/274 140/275 496/451 
f 135/276 141/277 140/275 134/274 
f 136/278 142/279 141/277 135/276 
f 137/280 143/281 142/279 136/278 
f 138/282 144/283 143/281 137/280 
f 139/284 145/285 144/283 138/282 
f 146/211 503/212 496/213 140/210 
f 141/214 147/215 146/211 140/210 
f 142/216 148/217 147/215 141/214 
f 143/218 149/219 148/217 142/216 
f 144/220 150/221 149/219 143/218 
f 145/452 151/453 150/221 144/220 
s 2
f 152/398 320/455 503/454 146/249 
f 147/399 153/400 152/398 146/249 
f 148/401 154/402 153/400 147/399 
f 149/403 155/404 154/402 148/401 
f 150/405 156/406 155/404 149/403 
f 151/407 157/408 156/406 150/405 
f 158/203 321/457 320/456 152/125 
f 153/126 159/204 158/203 152/125 
f 154/199 160/205 159/204 153/126 
f 155/200 161/206 160/205 154/199 
f 156/201 162/207 161/206 155/200 
f 157/202 163/208 162/207 156/201 
s 1
f 164/145 167/146 166/147 165/148 
f 165/148 166/147 168/149 106/94 
f 106/94 168/149 169/150 105/95 
f 105/95 169/150 170/151 108/152 
f 108/152 170/151 171/153 110/154 
f 110/154 171/153 531/155 315/156 
f 167/146 173/157 172/158 166/147 
f 166/147 172/158 174/159 168/149 
f 168/149 174/159 175/160 169/150 
f 169/150 175/160 176/161 170/151 
f 170/151 176/161 177/162 171/153 
f 171/153 177/162 322/163 531/155 
f 178/164 179/165 181/166 180/167 
f 180/167 181/166 183/168 182/169 
f 182/169 183/168 185/170 184/171 
f 184/171 185/170 187/172 186/354 
f 186/354 187/172 189/355 188/356 
f 188/356 189/355 550/357 325/358 
f 179/165 190/359 191/360 181/166 
f 181/166 191/360 192/361 183/168 
f 183/168 192/361 193/362 185/170 
f 185/170 193/362 194/363 187/172 
f 187/172 194/363 195/364 189/355 
f 189/355 195/364 557/365 550/357 
f 190/359 196/366 197/367 191/360 
f 191/360 197/367 198/368 192/361 
f 192/361 198/368 199/369 193/362 
f 193/362 199/369 200/370 194/363 
f 194/363 200/370 201/371 195/364 
f 201/371 326/372 557/365 195/364 
f 564/373 323/374 178/164 173/157 
f 180/167 172/158 173/157 178/164 
f 182/169 174/159 172/158 180/167 
f 184/171 175/160 174/159 182/169 
f 186/354 176/161 175/160 184/171 
f 188/356 177/162 176/161 186/354 
f 111/375 203/376 202/377 114/441 
f 112/442 204/443 203/376 111/375 
f 113/444 205/445 204/443 112/442 
f 114/441 202/377 206/446 125/447 
f 125/447 206/446 207/448 124/459 
f 124/459 207/448 208/460 126/461 
f 208/460 572/462 318/463 126/461 
f 203/376 210/464 209/465 202/377 
f 204/443 211/466 210/464 203/376 
f 205/445 212/467 211/466 204/443 
f 202/377 209/465 213/469 206/446 
f 206/446 213/469 214/471 207/448 
f 207/448 214/471 215/472 208/460 
f 215/472 580/473 572/462 208/460 
f 210/464 217/528 216/529 209/465 
f 211/466 218/530 217/528 210/464 
f 212/467 219/789 218/530 211/466 
f 209/465 216/529 220/790 213/469 
f 213/469 220/790 221/791 214/471 
f 214/471 221/791 222/792 215/472 
f 222/792 327/793 580/473 215/472 
s 2
f 217/340 224/341 223/342 216/343 
f 218/344 225/345 224/341 217/340 
f 219/346 226/347 225/345 218/344 
f 216/343 223/342 227/348 220/349 
f 220/349 227/348 228/350 221/351 
f 221/351 228/350 229/352 222/353 
f 229/352 595/475 327/476 222/353 
f 224/173 231/176 230/177 223/179 
f 225/182 232/184 231/176 224/173 
f 226/186 233/188 232/184 225/182 
f 223/179 230/177 234/333 227/336 
f 227/336 234/333 235/337 228/386 
f 228/386 235/337 236/388 229/478 
f 236/388 328/480 595/482 229/478 
f 231/174 238/189 237/190 230/175 
f 232/178 239/191 238/189 231/174 
f 233/180 240/192 239/191 232/178 
f 230/175 237/190 241/193 234/181 
f 234/181 241/193 242/317 235/183 
f 235/183 242/317 243/318 236/185 
f 243/318 329/319 328/187 236/185 
f 238/189 245/320 244/321 237/190 
f 239/191 246/322 245/320 238/189 
f 240/192 247/323 246/322 239/191 
f 237/190 244/321 248/324 241/193 
f 241/193 248/324 249/325 242/317 
f 242/317 249/325 250/326 243/318 
f 250/326 617/327 329/319 243/318 
f 245/320 251/328 244/321 
f 246/322 252/329 251/328 245/320 
f 247/323 252/329 246/322 
f 244/321 251/328 248/324 
f 248/324 251/328 253/330 249/325 
f 249/325 253/330 250/326 
f 253/330 330/331 617/327 250/326 
s 3
f 255/308 254/309 681/310 
f 255/308 681/310 682/312 256/311 
f 257/313 256/311 682/312 
f 254/309 258/314 681/310 
f 259/385 686/484 681/310 258/314 
f 259/385 260/518 686/484 
f 260/518 331/852 686/484 
s off
f 255/294 262/295 261/296 254/297 
f 256/298 263/299 262/295 255/294 
f 257/300 264/301 263/299 256/298 
f 254/297 261/296 265/302 258/303 
f 258/303 265/302 266/304 259/305 
f 259/305 266/304 267/306 260/307 
f 267/306 634/485 331/486 260/307 
s 1
f 262/194 269/195 268/196 261/197 
f 263/198 270/253 269/195 262/194 
f 264/254 271/255 270/253 263/198 
f 261/197 268/196 272/256 265/257 
f 265/257 272/256 273/258 266/259 
f 266/259 273/258 274/273 267/286 
f 274/273 642/488 634/487 267/286 
s off
f 269/287 276/288 275/289 268/290 
f 270/291 277/292 276/288 269/287 
f 271/293 278/378 277/292 270/291 
f 268/290 275/289 279/379 272/380 
f 272/380 279/379 280/381 273/382 
f 273/382 280/381 281/383 274/384 
f 281/383 332/489 642/490 274/384 
s 2
f 276/234 283/235 282/236 275/237 
f 277/238 284/239 283/235 276/234 
f 278/240 285/241 284/239 277/238 
f 275/237 282/236 286/242 279/243 
f 279/243 286/242 287/244 280/245 
f 280/245 287/244 288/246 281/247 
f 281/247 288/246 678/962 332/272 
s 1
f 101/88 102/91 293/114 294/112 
f 102/91 103/93 292/116 293/114 
f 291/127 118/140 117/115 292/116 
f 290/129 120/141 118/140 291/127 
f 289/131 122/143 120/141 290/129 
f 164/145 165/148 299/90 300/89 
f 299/90 165/148 106/94 298/92 
f 104/97 103/93 298/92 297/96 
f 105/95 108/152 296/98 297/96 
f 108/152 110/154 295/100 296/98 
f 110/154 315/156 344/102 295/100 
s off
f 159/250 162/251 163/252 158/248 
f 160/396 161/397 162/251 159/250 
f 200/391 197/392 196/393 201/390 
f 199/394 198/395 197/392 200/391 
f 33/229 30/230 29/231 34/228 
f 32/232 31/233 30/230 33/229 
f 78/223 81/224 82/225 77/222 
f 79/226 80/227 81/224 78/223 
s 1
f 12/10 11/11 301/409 302/410 
f 23/22 12/10 302/410 657/413 
f 29/28 23/22 657/413 303/415 
f 40/39 21/21 361/411 658/419 
f 46/45 40/39 658/419 659/421 
f 660/423 52/51 46/45 659/421 
f 306/425 58/81 52/51 660/423 
f 60/52 59/53 307/426 427/427 
f 59/53 71/64 661/430 307/426 
f 71/64 77/70 662/432 661/430 
f 70/62 88/87 310/436 309/429 
f 88/87 94/265 663/438 310/436 
f 94/265 100/271 313/440 663/438 
f 100/271 58/81 306/425 313/440 
f 179/165 178/164 323/374 324/474 
f 664/493 190/359 179/165 324/474 
f 196/366 190/359 664/493 665/494 
f 300/89 101/88 667/506 666/495 
f 485/683 130/144 122/143 668/507 
s off
f 669/496 139/450 133/449 
f 145/285 139/284 669/497 670/498 
f 151/453 145/452 670/500 671/499 
s 2
f 157/408 151/407 671/501 672/502 
f 163/208 157/202 672/503 333/504 
s 1
f 167/146 164/145 674/527 673/508 
f 173/157 167/146 673/508 564/373 
f 177/162 188/356 325/358 322/163 
f 334/794 205/445 113/444 316/795 
f 335/796 212/467 205/445 334/794 
f 219/789 212/467 335/796 336/797 
s 2
f 226/347 219/346 336/510 675/509 
f 233/188 226/186 675/1016 337/1015 
f 240/192 233/180 337/332 676/334 
f 247/323 240/192 676/334 338/335 
f 252/329 247/323 338/335 618/539 
s 3
f 677/853 257/1014 682/1013 
s off
f 264/301 257/300 677/520 339/519 
s 1
f 271/255 264/254 339/521 340/522 
s off
f 278/378 271/293 340/524 341/523 
s 2
f 679/964 285/241 278/240 341/492 
s 1
f 101/88 294/112 342/111 667/506 
f 122/143 289/131 343/133 668/507 
f 164/145 300/89 666/495 674/527 
s off
f 158/248 163/252 333/505 321/458 
f 201/390 196/393 665/470 326/468 
f 34/228 29/231 303/418 304/416 
f 77/222 82/225 426/435 662/433 
s 9
f 345/1010 252/1009 618/1006 346/1005 
f 347/1007 619/1008 330/1001 9/1004 
s 12
f 346/1005 618/1006 619/1008 347/1007 
s 1
f 348/540 351/543 350/542 349/541 
f 351/543 353/545 352/544 350/542 
f 353/545 355/547 354/546 352/544 
f 355/547 357/549 356/548 354/546 
f 357/549 359/551 358/550 356/548 
f 358/550 359/551 361/553 360/552 
f 349/541 350/542 363/555 362/554 
f 350/542 352/544 364/556 363/555 
f 352/544 354/546 365/557 364/556 
f 354/546 356/548 366/558 365/557 
f 356/548 358/550 367/559 366/558 
f 367/559 358/550 360/552 368/560 
f 362/554 363/555 370/562 369/561 
f 363/555 364/556 371/563 370/562 
f 364/556 365/557 372/564 371/563 
f 365/557 366/558 373/565 372/564 
f 366/558 367/559 374/566 373/565 
f 374/566 367/559 368/560 304/567 
f 348/540 301/569 680/965 375/568 
f 351/543 348/540 375/568 376/570 
f 353/545 351/543 376/570 377/571 
f 355/547 353/545 377/571 378/572 
f 357/549 355/547 378/572 379/573 
f 359/551 357/549 379/573 380/574 
f 381/575 375/568 680/966 305/576 
f 376/570 375/568 381/575 382/577 
f 377/571 376/570 382/577 383/578 
f 378/572 377/571 383/578 384/579 
f 379/573 378/572 384/579 385/580 
f 380/574 379/573 385/580 386/581 
f 387/582 381/575 305/576 388/583 
f 382/577 381/575 387/582 389/584 
f 383/578 382/577 389/584 390/585 
f 384/579 383/578 390/585 391/586 
f 385/580 384/579 391/586 392/587 
f 386/581 385/580 392/587 393/588 
f 394/589 387/582 388/583 395/590 
f 389/584 387/582 394/589 396/591 
f 390/585 389/584 396/591 397/592 
f 391/586 390/585 397/592 398/593 
f 392/587 391/586 398/593 399/594 
f 393/588 392/587 399/594 400/595 
f 401/596 404/599 403/598 402/597 
f 402/597 403/598 406/601 405/600 
f 405/600 406/601 408/603 407/602 
f 407/602 408/603 410/605 409/604 
f 409/604 410/605 412/607 411/606 
f 309/608 411/606 412/607 308/609 
f 404/599 414/611 413/610 403/598 
f 403/598 413/610 415/612 406/601 
f 406/601 415/612 416/613 408/603 
f 408/603 416/613 417/614 410/605 
f 410/605 417/614 418/615 412/607 
f 308/609 412/607 418/615 419/616 
f 414/611 421/618 420/617 413/610 
f 413/610 420/617 422/619 415/612 
f 415/612 422/619 423/620 416/613 
f 416/613 423/620 424/621 417/614 
f 417/614 424/621 425/622 418/615 
f 419/616 418/615 425/622 426/623 
f 401/596 429/626 428/625 427/624 
f 402/597 430/627 429/626 401/596 
f 405/600 431/628 430/627 402/597 
f 407/602 432/629 431/628 405/600 
f 409/604 433/630 432/629 407/602 
f 411/606 434/631 433/630 409/604 
f 428/959 429/626 435/633 311/632 
f 430/627 436/634 435/633 429/626 
f 431/628 437/635 436/634 430/627 
f 432/629 438/636 437/635 431/628 
f 433/630 439/637 438/636 432/629 
f 434/631 440/638 439/637 433/630 
f 311/632 435/633 441/640 312/639 
f 436/634 442/641 441/640 435/633 
f 437/635 443/642 442/641 436/634 
f 438/636 444/643 443/642 437/635 
f 439/637 445/644 444/643 438/636 
f 440/638 446/645 445/644 439/637 
f 312/639 441/640 394/589 395/590 
f 442/641 396/591 394/589 441/640 
f 443/642 397/592 396/591 442/641 
f 444/643 398/593 397/592 443/642 
f 445/644 399/594 398/593 444/643 
f 446/645 400/595 399/594 445/644 
f 448/649 447/646 450/647 449/648 
f 450/647 452/650 451/651 449/648 
f 453/652 451/651 455/653 454/654 
f 455/653 456/655 458/656 457/657 
f 457/657 458/656 460/658 459/659 
f 459/659 460/658 314/103 344/102 
f 456/655 462/660 461/661 458/656 
f 458/656 461/661 463/662 460/658 
f 314/103 460/658 463/662 316/107 
f 464/663 462/660 456/655 452/650 
f 466/943 465/664 467/665 342/944 
f 465/664 468/666 469/667 467/665 
f 470/668 471/669 469/667 468/666 
f 472/671 452/650 471/669 473/670 
f 474/673 472/671 473/670 475/672 
f 476/675 474/673 475/672 477/674 
f 317/132 476/675 477/674 343/133 
f 472/671 474/673 479/676 478/677 
f 474/673 476/675 480/678 479/676 
f 480/678 476/675 317/132 318/137 
f 472/671 478/677 464/663 452/650 
f 465/664 466/943 127/945 
f 468/666 465/664 127/945 
f 470/668 468/666 127/945 
f 481/679 470/668 127/945 482/680 
f 483/681 481/679 482/680 
f 484/682 483/681 482/680 485/683 
s off
f 486/694 1/969 489/693 
f 486/694 489/693 490/695 
f 487/697 486/694 490/695 491/696 
f 487/697 491/696 492/698 
f 488/700 487/697 492/698 493/699 
f 488/700 493/699 494/701 
f 495/705 489/704 134/274 496/451 
f 490/706 489/704 495/705 497/707 
f 491/708 490/706 497/707 498/709 
f 492/710 491/708 498/709 499/711 
f 493/712 492/710 499/711 500/713 
f 494/714 493/712 500/713 501/715 
f 502/703 495/702 496/213 503/212 
f 497/716 495/702 502/703 504/717 
f 498/718 497/716 504/717 505/719 
f 499/720 498/718 505/719 506/721 
f 500/722 499/720 506/721 507/723 
f 501/724 500/722 507/723 508/725 
s 2
f 509/731 502/730 503/733 320/732 
f 504/734 502/730 509/731 510/735 
f 505/736 504/734 510/735 511/737 
f 506/738 505/736 511/737 512/739 
f 507/740 506/738 512/739 513/741 
f 508/742 507/740 513/741 514/743 
f 515/745 509/744 320/747 321/746 
f 510/748 509/744 515/745 516/749 
f 511/750 510/748 516/749 517/751 
f 512/752 511/750 517/751 518/753 
f 513/754 512/752 518/753 519/755 
f 514/756 513/754 519/755 520/757 
s 1
f 521/684 524/685 523/686 522/687 
f 524/685 453/652 525/688 523/686 
f 453/652 454/654 526/689 525/688 
f 454/654 528/690 527/691 526/689 
f 528/690 530/692 529/758 527/691 
f 530/692 315/156 531/155 529/758 
f 522/687 523/686 533/759 532/760 
f 523/686 525/688 534/761 533/759 
f 525/688 526/689 535/762 534/761 
f 526/689 527/691 536/763 535/762 
f 527/691 529/758 537/764 536/763 
f 529/758 531/155 322/163 537/764 
f 538/765 541/766 540/767 539/768 
f 541/766 543/769 542/770 540/767 
f 543/769 545/771 544/772 542/770 
f 545/771 547/773 546/774 544/772 
f 547/773 549/775 548/776 546/774 
f 549/775 325/358 550/357 548/776 
f 539/768 540/767 552/777 551/778 
f 540/767 542/770 553/779 552/777 
f 542/770 544/772 554/780 553/779 
f 544/772 546/774 555/781 554/780 
f 546/774 548/776 556/782 555/781 
f 548/776 550/357 557/365 556/782 
f 551/778 552/777 559/783 558/784 
f 552/777 553/779 560/785 559/783 
f 553/779 554/780 561/786 560/785 
f 554/780 555/781 562/787 561/786 
f 555/781 556/782 563/788 562/787 
f 563/788 556/782 557/365 326/372 
f 564/946 532/760 538/765 323/947 
f 541/766 538/765 532/760 533/759 
f 543/769 541/766 533/759 534/761 
f 545/771 543/769 534/761 535/762 
f 547/773 545/771 535/762 536/763 
f 549/775 547/773 536/763 537/764 
f 462/798 464/799 566/800 565/801 
f 461/802 462/798 565/801 567/803 
f 463/804 461/802 567/803 568/805 
f 464/799 478/806 569/807 566/800 
f 478/806 479/808 570/809 569/807 
f 479/808 480/810 571/811 570/809 
f 571/811 480/810 318/956 572/955 
f 565/801 566/800 574/812 573/813 
f 567/803 565/801 573/813 575/814 
f 568/805 567/803 575/814 576/815 
f 566/800 569/807 577/816 574/812 
f 569/807 570/809 578/817 577/816 
f 570/809 571/811 579/818 578/817 
f 579/818 571/811 572/955 580/957 
f 573/813 574/812 582/819 581/820 
f 575/814 573/813 581/820 583/821 
f 576/815 575/814 583/821 584/822 
f 574/812 577/816 585/823 582/819 
f 577/816 578/817 586/824 585/823 
f 578/817 579/818 587/825 586/824 
f 587/825 579/818 580/957 327/958 
s 2
f 581/826 582/827 589/828 588/829 
f 583/830 581/826 588/829 590/831 
f 584/832 583/830 590/831 591/833 
f 582/827 585/834 592/835 589/828 
f 585/834 586/836 593/837 592/835 
f 586/836 587/838 594/839 593/837 
f 594/839 587/838 327/476 595/475 
f 588/1017 589/1018 597/1019 596/1020 
f 590/1021 588/1031 596/1032 598/1022 
f 591/1023 590/1021 598/1022 599/1024 
f 589/1018 592/1025 600/1026 597/1019 
f 592/1025 593/1027 601/1028 600/1026 
f 593/1027 594/1029 602/1030 601/1028 
f 602/1030 594/1029 595/482 328/480 
f 596/339 597/338 604/511 603/512 
f 598/387 596/339 603/512 605/513 
f 599/477 598/387 605/513 606/514 
f 597/338 600/479 607/515 604/511 
f 600/479 601/481 608/516 607/515 
f 601/481 602/483 609/517 608/516 
f 609/517 602/483 328/187 329/319 
f 603/512 604/511 611/532 610/533 
f 605/513 603/512 610/533 612/534 
f 606/514 605/513 612/534 613/535 
f 604/511 607/515 614/536 611/532 
f 607/515 608/516 615/537 614/536 
f 608/516 609/517 616/538 615/537 
f 616/538 609/517 329/319 617/327 
f 610/533 611/532 619/847 618/539 
f 612/534 610/533 618/539 
f 613/535 612/534 618/539 
f 611/532 614/536 619/847 
f 614/536 615/537 619/847 
f 615/537 616/538 330/331 619/847 
f 616/538 617/327 330/331 
s 3
f 620/854 684/855 621/856 
f 683/939 684/855 620/854 622/857 
f 623/975 683/939 622/857 
f 621/856 684/855 624/976 
f 684/855 685/990 625/995 624/976 
f 625/995 685/990 626/996 
f 685/990 686/484 331/852 626/996 
s off
f 620/840 621/841 628/842 627/843 
f 622/844 620/840 627/843 629/845 
f 623/846 622/844 629/845 630/858 
f 621/841 624/859 631/860 628/842 
f 624/859 625/861 632/862 631/860 
f 625/861 626/863 633/864 632/862 
f 633/864 626/863 331/486 634/485 
s 1
f 627/865 628/868 636/867 635/866 
f 629/869 627/865 635/866 637/870 
f 630/871 629/869 637/870 638/872 
f 628/868 631/874 639/873 636/867 
f 631/874 632/876 640/875 639/873 
f 632/876 633/878 641/877 640/875 
f 641/877 633/878 634/487 642/488 
s off
f 635/850 636/851 644/879 643/880 
f 637/881 635/850 643/880 645/882 
f 638/883 637/881 645/882 646/884 
f 636/851 639/885 647/886 644/879 
f 639/885 640/887 648/888 647/886 
f 640/887 641/889 649/890 648/888 
f 649/890 641/889 642/490 332/489 
s 2
f 643/525 644/526 651/895 650/896 
f 645/897 643/525 650/896 652/898 
f 646/899 645/897 652/898 653/900 
f 644/526 647/901 654/902 651/895 
f 647/901 648/903 655/904 654/902 
f 648/903 649/905 656/906 655/904 
f 649/905 332/938 678/963 656/906 
s 1
f 447/646 467/665 469/667 450/647 
f 450/647 469/667 471/669 452/650 
f 473/670 471/669 470/668 481/679 
f 475/672 473/670 481/679 483/681 
f 477/674 475/672 483/681 484/682 
f 521/684 448/649 449/648 524/685 
f 449/648 451/651 453/652 524/685 
f 456/655 455/653 451/651 452/650 
f 454/654 455/653 457/657 528/690 
f 528/690 457/657 459/659 530/692 
f 530/692 459/659 344/102 315/156 
s off
f 516/729 515/726 520/727 519/728 
f 517/849 516/729 519/728 518/848 
f 562/910 563/907 558/908 559/909 
f 561/912 562/910 559/909 560/911 
f 373/894 374/891 369/892 370/893 
f 372/914 373/894 370/893 371/913 
f 420/918 421/915 425/916 424/917 
f 422/920 420/918 424/917 423/919 
s 1
f 349/541 302/921 301/569 348/540 
f 362/554 657/922 302/921 349/541 
f 369/561 303/923 657/922 362/554 
f 380/574 658/924 361/553 359/551 
f 386/581 659/925 658/924 380/574 
f 660/926 659/925 386/581 393/588 
f 306/927 660/926 393/588 400/595 
f 401/596 427/624 307/928 404/599 
f 404/599 307/928 661/929 414/611 
f 414/611 661/929 662/930 421/618 
f 411/606 309/608 310/931 434/631 
f 434/631 310/931 663/932 440/638 
f 440/638 663/932 313/933 446/645 
f 446/645 313/933 306/927 400/595 
f 539/768 324/948 323/947 538/765 
f 664/949 324/948 539/768 551/778 
f 558/784 665/950 664/949 551/778 
f 448/649 666/951 667/952 447/646 
f 668/507 484/682 485/683 
s off
f 494/701 669/496 133/449 488/700 
f 501/715 670/934 669/935 494/714 
f 508/725 671/499 670/500 501/724 
s 2
f 514/743 672/502 671/501 508/742 
f 520/757 333/504 672/503 514/756 
s 1
f 522/687 673/953 674/954 521/684 
f 532/760 564/946 673/953 522/687 
f 537/764 322/163 325/358 549/775 
f 334/794 316/795 463/804 568/805 
f 335/796 334/794 568/805 576/815 
f 584/822 336/797 335/796 576/815 
s 2
f 591/833 675/509 336/510 584/832 
f 599/1024 337/1015 675/1016 591/1023 
f 606/514 676/334 337/332 599/477 
f 613/535 338/335 676/334 606/514 
f 338/335 613/535 618/539 
s 3
f 682/1013 683/939 623/975 677/853 
s off
f 630/858 339/519 677/520 623/846 
s 1
f 638/872 340/936 339/937 630/871 
s off
f 646/884 341/523 340/524 638/883 
s 2
f 679/491 341/492 646/899 653/900 
s 1
f 447/646 667/952 342/944 467/665 
f 484/682 668/507 343/133 477/674 
f 521/684 674/954 666/951 448/649 
s off
f 515/726 321/458 333/505 520/727 
f 563/907 326/468 665/470 558/908 
f 374/891 304/416 303/418 369/892 
f 421/915 662/433 426/435 425/916 
f 319/119 134/118 489/693 1/969 
f 2/2 3/3 127/4 128/5 
f 3/3 4/6 482/7 127/4 
f 4/6 5/942 485/970 482/7 
f 5/942 6/971 130/972 485/970 
f 6/971 7/973 129/974 130/972 
f 7/973 2/2 128/5 129/974 
f 8/8 345/9 682/315 681/316 
f 9/389 10/531 686/940 685/977 
f 10/531 8/8 681/316 686/940 
f 345/9 346/980 683/983 682/315 
f 347/985 9/389 685/977 684/988 
f 346/980 347/985 684/988 683/983 
# 656 polygons - 38 triangles

